<svg xmlns:rdf="http://www.w3.org/1999/02/22-rdf-syntax-ns#" xmlns="http://www.w3.org/2000/svg" viewbox="0 0 48 48" version="1.1" xmlns:cc="http://creativecommons.org/ns#" xmlns:dc="http://purl.org/dc/elements/1.1/" viewBox="0 0 48 48">
<g transform="translate(0 -1004.4)">
<path d="m24 1a23 23 0 0 0 -23 23 23 23 0 0 0 23 23 23 23 0 0 0 23 -23 23 23 0 0 0 -23 -23zm-0.914 6.4844h2.129v2.6176c1.393 0.052 2.578 0.234 3.555 0.546 0.976 0.313 1.803 0.756 2.48 1.329 0.677 0.559 1.224 1.256 1.641 2.089 0.416 0.821 0.761 1.778 1.035 2.872l-5.156 0.761c-0.196-1.133-0.58-2.005-1.153-2.617-0.56-0.625-1.36-1.009-2.402-1.152v6.875c0.065 0.026 0.13 0.039 0.195 0.039 0.078 0 0.156 0.013 0.235 0.039 1.119 0.26 2.213 0.566 3.281 0.918 1.081 0.351 2.038 0.827 2.871 1.426 0.846 0.599 1.523 1.373 2.031 2.324 0.521 0.937 0.781 2.129 0.781 3.574 0 1.107-0.182 2.116-0.547 3.027-0.364 0.899-0.93 1.68-1.699 2.344-0.755 0.651-1.725 1.172-2.91 1.563-1.185 0.377-2.598 0.599-4.238 0.664v3.418h-2.129v-3.36c-1.484-0.052-2.78-0.254-3.887-0.605-1.094-0.352-2.031-0.847-2.812-1.485-0.769-0.638-1.394-1.412-1.875-2.324-0.469-0.924-0.821-1.979-1.055-3.164l5-0.918c0.104 0.625 0.254 1.198 0.449 1.719 0.209 0.508 0.489 0.95 0.84 1.328 0.352 0.378 0.794 0.69 1.328 0.938 0.547 0.234 1.218 0.39 2.012 0.468v-7.636c-0.039-0.027-0.137-0.052-0.293-0.079-0.156-0.039-0.26-0.058-0.313-0.058-1.015-0.235-2.011-0.521-2.988-0.86-0.976-0.351-1.849-0.82-2.617-1.406-0.755-0.599-1.367-1.347-1.836-2.246-0.469-0.911-0.703-2.044-0.703-3.398 0-1.185 0.215-2.201 0.644-3.047 0.43-0.86 1.029-1.569 1.797-2.129 0.782-0.56 1.706-0.983 2.774-1.27 1.081-0.286 2.259-0.455 3.535-0.507v-2.6176zm0 6.3676c-0.69 0.052-1.27 0.169-1.738 0.351-0.456 0.182-0.827 0.417-1.114 0.703-0.286 0.274-0.488 0.593-0.605 0.957-0.117 0.352-0.176 0.723-0.176 1.114 0 0.559 0.091 1.022 0.274 1.386 0.182 0.352 0.436 0.645 0.761 0.879 0.326 0.235 0.71 0.436 1.153 0.606 0.442 0.156 0.924 0.319 1.445 0.488v-6.484zm2.129 11.718v7.168c1.38-0.091 2.441-0.416 3.183-0.976 0.756-0.56 1.133-1.413 1.133-2.559 0-0.638-0.11-1.152-0.332-1.543-0.221-0.404-0.527-0.729-0.918-0.976-0.39-0.248-0.853-0.45-1.386-0.606-0.521-0.169-1.081-0.338-1.68-0.508z" transform="translate(0 1004.4)"/>
<g transform="matrix(1.3107 0 0 1.3107 2.1929 -330.82)">
<g></g>
</g>
</g>
</svg>
