<svg xmlns:rdf="http://www.w3.org/1999/02/22-rdf-syntax-ns#" xmlns="http://www.w3.org/2000/svg" viewbox="0 0 48 48" version="1.1" xmlns:cc="http://creativecommons.org/ns#" xmlns:dc="http://purl.org/dc/elements/1.1/" viewBox="0 0 48 48">
<g transform="translate(0 -1004.4)">
<circle cx="15.7" transform="matrix(1.4027 0 0 1.4027 2.0774 1006)" stroke="#000" cy="15.9" r="14.95" stroke-width="2.7" fill="none"/>
<g transform="matrix(1.3107 0 0 1.3107 2.1929 -330.82)">
<g>
<g>
<path d="m24.732 1040.9q0 1.2667-0.41725 2.3098-0.41725 1.0282-1.2964 1.7882-0.8643 0.7451-2.2203 1.1921-1.356 0.4322-3.2337 0.5067v2.6078h-1.6243v-2.5631q-1.6988-0.06-2.9654-0.462-1.2517-0.4023-2.1458-1.1325-0.8792-0.7302-1.4306-1.7733-0.53646-1.058-0.80469-2.4141l3.8148-0.7003q0.11921 0.7152 0.34274 1.3113 0.23843 0.5812 0.64077 1.0133 0.40234 0.4322 1.0133 0.7153 0.62587 0.2682 1.5349 0.3576v-5.8265q-0.04471-0.03-0.22352-0.06-0.17882-0.045-0.23843-0.045-1.1623-0.2683-2.28-0.6557-1.1176-0.4023-1.9968-1.0729-0.8643-0.6855-1.4008-1.7137-0.53646-1.0431-0.53646-2.5929 0-1.3561 0.49175-2.3247 0.49175-0.9835 1.371-1.6242 0.8941-0.6408 2.116-0.9686 1.2368-0.3279 2.6972-0.3875v-1.9968h1.6243v1.9968q1.5945 0.06 2.7121 0.4173 1.1176 0.3576 1.8925 1.0133 0.77489 0.6407 1.2517 1.5944 0.47685 0.9389 0.78979 2.1906l-3.934 0.5812q-0.22352-1.2965-0.8792-1.9969-0.64077-0.7152-1.8329-0.8792v5.2454q0.07451 0.03 0.14902 0.03 0.08941 0 0.17882 0.03 1.2815 0.2981 2.5035 0.7004 1.2368 0.4023 2.1905 1.0878 0.96861 0.6855 1.5498 1.7733 0.59607 1.0729 0.59607 2.727zm-8.792-11.653q-0.78979 0.06-1.3262 0.2683-0.52156 0.2086-0.8494 0.5364-0.32784 0.313-0.46195 0.7302-0.13412 0.4023-0.13412 0.8494 0 0.6408 0.20862 1.058 0.20862 0.4024 0.58116 0.6706t0.8792 0.4619q0.50666 0.1789 1.1027 0.3726v-4.9474zm4.9175 11.713q0-0.7302-0.25333-1.1772-0.25333-0.462-0.70038-0.7451t-1.058-0.4619q-0.59607-0.1938-1.2815-0.3875v5.4689q1.5796-0.1043 2.429-0.7451 0.8643-0.6407 0.8643-1.9521z"/>
</g>
</g>
</g>
</g>
</svg>
