<svg xmlns:rdf="http://www.w3.org/1999/02/22-rdf-syntax-ns#" xmlns="http://www.w3.org/2000/svg" viewbox="0 0 32 32" version="1.1" xmlns:cc="http://creativecommons.org/ns#" xmlns:dc="http://purl.org/dc/elements/1.1/" viewBox="0 0 32 32">
<g transform="translate(0 -1020.4)">
<g transform="matrix(1.5755 0 0 1.5755 -17.75 -588.83)">
<rect ry=".96954" rx=".64636" transform="rotate(-45.994)" height="4.4444" width="3" y="729.62" x="-718.7"/>
<rect ry=".70356" rx=".70356" transform="rotate(-45.994)" height="4.4444" width="14.611" y="729.62" x="-734.03"/>
<path d="m45.833 19c-0.717 0.565-4.991-1.39-5.839-1.728-0.848-0.339-5.293-1.865-5.424-2.769s3.699-3.628 4.417-4.193c0.717-0.5653 4.261-3.6515 5.109-3.3128 0.849 0.3388 1.292 5.0168 1.423 5.9208s1.032 5.517 0.314 6.082z" transform="matrix(.25999 -.20759 .20768 .26006 1.3108 1043.1)"/>
</g>
</g>
</svg>
