<svg xmlns:rdf="http://www.w3.org/1999/02/22-rdf-syntax-ns#" xmlns="http://www.w3.org/2000/svg" viewbox="0 0 48 48" version="1.1" xmlns:cc="http://creativecommons.org/ns#" xmlns:dc="http://purl.org/dc/elements/1.1/" viewBox="0 0 48 48">
<g transform="translate(0 -1004.4)">
<path style="color-rendering:auto;text-decoration-color:#000000;color:#000000;isolation:auto;mix-blend-mode:normal;shape-rendering:auto;solid-color:#000000;block-progression:tb;text-decoration-line:none;text-decoration-style:solid;image-rendering:auto;white-space:normal;text-indent:0;text-transform:none" d="m24.099 1005.4c-12.605 0-22.863 10.26-22.863 22.865 1e-7 12.605 10.257 22.863 22.863 22.863 12.605 0 22.865-10.257 22.865-22.863 0-12.605-10.26-22.865-22.865-22.865zm0 3.7889c10.558 0 19.079 8.5181 19.079 19.076s-8.5208 19.076-19.079 19.076-19.076-8.5181-19.076-19.076 8.518-19.076 19.076-19.076z"/>
<g transform="matrix(1.3107 0 0 1.3107 2.1929 -330.82)">
<g>
<path d="m7.473 1038.1-0.73245 2.0753h2.1973c0.39674 1.9531 1.0071 3.5401 1.9532 4.944 1.3733 2.0447 3.9064 3.3875 6.3173 3.3875 1.1902 0 2.2279-0.2441 4.6388-1.0376v-4.5473c-2.3804 1.2818-3.235 1.587-4.4557 1.587-1.8311 0-3.296-1.5565-4.0895-4.3336h5.5239l0.76296-2.0753h-6.6225c-0.06104-0.3052-0.06104-0.5188-0.06104-0.824 0-0.4273 0.03052-0.763 0.09155-1.2513h7.3245l0.73245-2.0752h-7.6602c0.73245-2.8077 2.1058-4.2726 3.9979-4.2726 1.3733 0 2.533 0.5188 4.4557 2.0447l1.3733-3.9369c-2.1973-1.6175-3.4181-2.0753-5.5544-2.0753-4.3947 0-7.5991 3.0214-8.7283 8.2401h-1.4649l-0.73245 2.0752h1.9227c-0.030519 0.3662-0.030519 0.6409-0.030519 1.0071 0 0.3663 0 0.6409 0.061037 1.0682h-1.2207z"/>
</g>
</g>
</g>
</svg>
