<svg xmlns:rdf="http://www.w3.org/1999/02/22-rdf-syntax-ns#" xmlns="http://www.w3.org/2000/svg" viewbox="0 0 48 48" version="1.1" xmlns:cc="http://creativecommons.org/ns#" xmlns:dc="http://purl.org/dc/elements/1.1/" viewBox="0 0 48 48">
<g transform="translate(0 -1004.4)">
<path d="m24 1a23 23 0 0 0 -23 23 23 23 0 0 0 23 23 23 23 0 0 0 23 -23 23 23 0 0 0 -23 -23zm1.348 8.1641c2.8 0 4.399 0.6006 7.279 2.7209l-1.799 5.16c-2.52-2-4.04-2.68-5.84-2.68-2.48 0-4.28 1.92-5.24 5.6h10.039l-0.959 2.719h-9.599c-0.08 0.64-0.122 1.08-0.122 1.64 0 0.4 0 0.68 0.081 1.08h8.679l-1 2.721h-7.24c1.04 3.64 2.961 5.68 5.361 5.68 1.6 0 2.72-0.4 5.84-2.08v5.959c-3.16 1.04-4.52 1.361-6.08 1.361-3.16 0-6.481-1.76-8.281-4.44-1.24-1.84-2.039-3.92-2.559-6.48h-2.881l0.961-2.721h1.6c-0.08-0.56-0.08-0.92-0.08-1.4s-0.001-0.84 0.039-1.32h-2.52l0.961-2.719h1.92c1.48-6.84 5.68-10.801 11.44-10.801z" transform="translate(0 1004.4)"/>
<g transform="matrix(1.3107 0 0 1.3107 2.1929 -330.82)"></g>
</g>
</svg>
