<svg xmlns:rdf="http://www.w3.org/1999/02/22-rdf-syntax-ns#" xmlns="http://www.w3.org/2000/svg" viewbox="0 0 48 48" version="1.1" xmlns:cc="http://creativecommons.org/ns#" xmlns:dc="http://purl.org/dc/elements/1.1/" viewBox="0 0 48 48">
<g transform="translate(0 -1004.4)">
<path d="m24 1a23 23 0 0 0 -23 23 23 23 0 0 0 23 23 23 23 0 0 0 23 -23 23 23 0 0 0 -23 -23zm-7.375 7.7188h13.094c0.726 0 1.312 0.5863 1.312 1.3122v1.313c0.647 0 1.172 0.479 1.281 1.094 0.635-0.02 1.191 0.418 1.313 1.062l0.656 3.469a1.1142 1.1142 0 0 1 0.219 0.25c1.816 2.178 2.602 4.748 2.781 7.031s-0.113 4.235-1.125 5.5c-0.253 0.316-0.565 0.618-1 0.781-0.434 0.163-1 0.118-1.437-0.062-0.874-0.361-1.378-1.108-1.844-2.157-0.312-0.701-0.589-1.591-0.844-2.656v7.969h1.313c0.726 0 1.312 0.586 1.312 1.313v1.312c0 0.726-0.586 1.312-1.312 1.312h-18.344c-0.726 0-1.312-0.586-1.312-1.312v-1.312c0-0.727 0.586-1.313 1.312-1.313h1.312v-23.594c0-0.7259 0.587-1.3122 1.313-1.3122zm2.594 2.6252c-0.726 0-1.313 0.586-1.313 1.312v3.938c0 0.726 0.587 1.312 1.313 1.312h7.875c0.726 0 1.312-0.586 1.312-1.312v-3.938c0-0.726-0.586-1.312-1.312-1.312h-7.875zm13.093 7.531c0.379 4.42 1.021 7.171 1.626 8.531 0.283 0.639 0.458 0.738 0.531 0.813 0.302-0.463 0.767-2.001 0.625-3.813-0.134-1.7-0.705-3.606-1.875-5.25-0.338 0.022-0.657-0.077-0.907-0.281z" transform="translate(0 1004.4)"/>
</g>
</svg>
