<?xml version="1.0" encoding="UTF-8" standalone="no"?>
<!-- Created with Inkscape (http://www.inkscape.org/) -->

<svg
   xmlns:dc="http://purl.org/dc/elements/1.1/"
   xmlns:cc="http://creativecommons.org/ns#"
   xmlns:rdf="http://www.w3.org/1999/02/22-rdf-syntax-ns#"
   xmlns:svg="http://www.w3.org/2000/svg"
   xmlns="http://www.w3.org/2000/svg"
   xmlns:sodipodi="http://sodipodi.sourceforge.net/DTD/sodipodi-0.dtd"
   xmlns:inkscape="http://www.inkscape.org/namespaces/inkscape"
   width="32"
   height="32"
   id="svg2"
   version="1.1"
   inkscape:version="0.48.4 r9939"
   sodipodi:docname="gas.svg">
  <defs
     id="defs4" />
  <sodipodi:namedview
     id="base"
     pagecolor="#ffffff"
     bordercolor="#666666"
     borderopacity="1.0"
     inkscape:pageopacity="0.0"
     inkscape:pageshadow="2"
     inkscape:zoom="10"
     inkscape:cx="-24.689586"
     inkscape:cy="30.508035"
     inkscape:document-units="px"
     inkscape:current-layer="g3789"
     showgrid="false"
     inkscape:window-width="2495"
     inkscape:window-height="1290"
     inkscape:window-x="65"
     inkscape:window-y="24"
     inkscape:window-maximized="1">
    <inkscape:grid
       type="xygrid"
       id="grid2987"
       empspacing="5"
       visible="true"
       enabled="true"
       snapvisiblegridlinesonly="true" />
  </sodipodi:namedview>
  <metadata
     id="metadata7">
    <rdf:RDF>
      <cc:Work
         rdf:about="">
        <dc:format>image/svg+xml</dc:format>
        <dc:type
           rdf:resource="http://purl.org/dc/dcmitype/StillImage" />
        <dc:title></dc:title>
      </cc:Work>
    </rdf:RDF>
  </metadata>
  <g
     inkscape:label="Layer 1"
     inkscape:groupmode="layer"
     id="layer1"
     transform="translate(0,-1020.3622)">
    <g
       id="g7274">
      <path
         transform="matrix(0.89657723,0,0,0.89657551,2.1737491,1022.2566)"
         d="m 30.65,15.9 a 14.95,14.95 0 1 1 -29.9,0 14.95,14.95 0 1 1 29.9,0 z"
         sodipodi:ry="14.95"
         sodipodi:rx="14.95"
         sodipodi:cy="15.9"
         sodipodi:cx="15.7"
         id="path2985"
         style="fill:none;stroke:#000000;stroke-width:2.70000005;stroke-linecap:butt;stroke-linejoin:miter;stroke-miterlimit:4;stroke-opacity:1;stroke-dasharray:none"
         sodipodi:type="arc" />
      <g
         transform="matrix(1.3106767,0,0,1.3106767,2.1929484,-330.82261)"
         id="g3789">
        <path
           id="rect3757"
           d="m 7.0797277,1035.8248 c -0.3541025,0 -0.6400631,0.2859 -0.6400631,0.64 l 0,11.5059 -0.6400631,0 c -0.3541014,0 -0.640062,0.2859 -0.640062,0.6401 l 0,0.6401 c 0,0.354 0.2859606,0.64 0.640062,0.64 l 8.9456395,0 c 0.354101,0 0.640062,-0.286 0.640062,-0.64 l 0,-0.6401 c 0,-0.3542 -0.285961,-0.6401 -0.640062,-0.6401 l -0.640063,0 0,-3.8861 c 0.124378,0.5194 0.259423,0.9533 0.411469,1.2954 0.227343,0.5115 0.472805,0.8756 0.899135,1.0515 0.213166,0.088 0.489108,0.11 0.701021,0.03 0.211914,-0.08 0.364312,-0.2268 0.487668,-0.381 0.493423,-0.6168 0.635946,-1.5688 0.548625,-2.6821 -0.08732,-1.1134 -0.470879,-2.3664 -1.356324,-3.4289 a 0.54335184,0.54335184 0 0 0 -0.106674,-0.1219 l -0.320031,-1.6916 c -0.05945,-0.314 -0.330859,-0.5275 -0.640063,-0.5182 -0.05349,-0.2997 -0.309536,-0.5334 -0.624823,-0.5334 l 0,-0.6401 c 0,-0.354 -0.28596,-0.64 -0.640063,-0.64 l -6.3853869,0 z m 1.2648851,1.2801 3.8403772,0 c 0.354102,0 0.640063,0.2859 0.640063,0.6401 l 0,1.9201 c 0,0.3541 -0.285961,0.6401 -0.640063,0.6401 l -3.8403772,0 c -0.3541015,0 -0.640062,-0.286 -0.640062,-0.6401 l 0,-1.9201 c 0,-0.3542 0.2859605,-0.6401 0.640062,-0.6401 z m 6.3853882,3.6727 c 0.121492,0.1 0.277376,0.1478 0.441948,0.1372 0.570828,0.8014 0.849333,1.7309 0.914375,2.5602 0.0693,0.8835 -0.157574,1.6335 -0.304792,1.8593 -0.03569,-0.037 -0.120734,-0.084 -0.259073,-0.3962 -0.294776,-0.6633 -0.607815,-2.0047 -0.792458,-4.1605 z"
           style="fill:#000000;fill-opacity:1;stroke:none"
           inkscape:connector-curvature="0" />
      </g>
    </g>
  </g>
</svg>
