<?xml version="1.0" encoding="UTF-8" standalone="no"?>
<!-- Created with Inkscape (http://www.inkscape.org/) -->

<svg
   xmlns:dc="http://purl.org/dc/elements/1.1/"
   xmlns:cc="http://creativecommons.org/ns#"
   xmlns:rdf="http://www.w3.org/1999/02/22-rdf-syntax-ns#"
   xmlns:svg="http://www.w3.org/2000/svg"
   xmlns="http://www.w3.org/2000/svg"
   xmlns:sodipodi="http://sodipodi.sourceforge.net/DTD/sodipodi-0.dtd"
   xmlns:inkscape="http://www.inkscape.org/namespaces/inkscape"
   width="48"
   height="48"
   id="svg2"
   version="1.1"
   inkscape:version="0.48.4 r9939"
   sodipodi:docname="gas.svg">
  <defs
     id="defs4" />
  <sodipodi:namedview
     id="base"
     pagecolor="#ffffff"
     bordercolor="#666666"
     borderopacity="1.0"
     inkscape:pageopacity="0.0"
     inkscape:pageshadow="2"
     inkscape:zoom="10"
     inkscape:cx="-24.689586"
     inkscape:cy="30.508035"
     inkscape:document-units="px"
     inkscape:current-layer="g3789"
     showgrid="false"
     inkscape:window-width="2495"
     inkscape:window-height="1290"
     inkscape:window-x="65"
     inkscape:window-y="24"
     inkscape:window-maximized="1">
    <inkscape:grid
       type="xygrid"
       id="grid2987"
       empspacing="5"
       visible="true"
       enabled="true"
       snapvisiblegridlinesonly="true" />
  </sodipodi:namedview>
  <metadata
     id="metadata7">
    <rdf:RDF>
      <cc:Work
         rdf:about="">
        <dc:format>image/svg+xml</dc:format>
        <dc:type
           rdf:resource="http://purl.org/dc/dcmitype/StillImage" />
        <dc:title />
      </cc:Work>
    </rdf:RDF>
  </metadata>
  <g
     inkscape:label="Layer 1"
     inkscape:groupmode="layer"
     id="layer1"
     transform="translate(0,-1004.3622)">
    <g
       id="g7274">
      <path
         transform="matrix(1.4027133,0,0,1.4027106,2.0774132,1005.959)"
         d="m 30.65,15.9 c 0,8.256657 -6.693343,14.949999 -14.95,14.949999 C 7.4433429,30.849999 0.75,24.156657 0.75,15.9 0.75,7.6433427 7.4433429,0.94999981 15.7,0.94999981 c 8.256657,0 14.95,6.69334289 14.95,14.95000019 z"
         sodipodi:ry="14.95"
         sodipodi:rx="14.95"
         sodipodi:cy="15.9"
         sodipodi:cx="15.7"
         id="path2985"
         style="fill:none;stroke:#000000;stroke-width:2.70000004999999987;stroke-linecap:butt;stroke-linejoin:miter;stroke-miterlimit:4;stroke-opacity:1;stroke-dasharray:none"
         sodipodi:type="arc" />
      <g
         transform="matrix(1.3106767,0,0,1.3106767,2.1929484,-330.82261)"
         id="g3789">
        <path
           id="rect3757"
           transform="matrix(0.76296466,0,0,0.76296466,-1.6731421,1018.6988)"
           d="M 16.625 8.71875 C 15.898885 8.71875 15.3125 9.3051351 15.3125 10.03125 L 15.3125 33.625 L 14 33.625 C 13.273885 33.625 12.6875 34.211385 12.6875 34.9375 L 12.6875 36.25 C 12.6875 36.976115 13.273885 37.5625 14 37.5625 L 32.34375 37.5625 C 33.069865 37.5625 33.65625 36.976115 33.65625 36.25 L 33.65625 34.9375 C 33.65625 34.211385 33.069865 33.625 32.34375 33.625 L 31.03125 33.625 L 31.03125 25.65625 C 31.286299 26.721313 31.563219 27.61098 31.875 28.3125 C 32.341184 29.361435 32.844526 30.108052 33.71875 30.46875 C 34.155862 30.648968 34.721704 30.694429 35.15625 30.53125 C 35.590796 30.368333 35.903299 30.066135 36.15625 29.75 C 37.168054 28.485197 37.460308 26.532937 37.28125 24.25 C 37.102192 21.966932 36.315675 19.397488 34.5 17.21875 A 1.1141866 1.1141866 0 0 0 34.28125 16.96875 L 33.625 13.5 C 33.503096 12.856165 32.946547 12.418338 32.3125 12.4375 C 32.202816 11.823032 31.677772 11.34375 31.03125 11.34375 L 31.03125 10.03125 C 31.03125 9.3051351 30.444865 8.71875 29.71875 8.71875 L 16.625 8.71875 z M 19.21875 11.34375 L 27.09375 11.34375 C 27.819865 11.34375 28.40625 11.930135 28.40625 12.65625 L 28.40625 16.59375 C 28.40625 17.319865 27.819865 17.90625 27.09375 17.90625 L 19.21875 17.90625 C 18.492635 17.90625 17.90625 17.319865 17.90625 16.59375 L 17.90625 12.65625 C 17.90625 11.930135 18.492635 11.34375 19.21875 11.34375 z M 32.3125 18.875 C 32.561629 19.078788 32.881281 19.178085 33.21875 19.15625 C 34.389279 20.799543 34.960375 22.705669 35.09375 24.40625 C 35.235846 26.217867 34.77063 27.755688 34.46875 28.21875 C 34.395562 28.144041 34.221174 28.04455 33.9375 27.40625 C 33.333037 26.046243 32.691124 23.295498 32.3125 18.875 z "
           style="fill:#000000;fill-opacity:1;stroke:none" />
      </g>
    </g>
  </g>
</svg>
