<?xml version="1.0" encoding="UTF-8" standalone="no"?>
<!-- Created with Inkscape (http://www.inkscape.org/) -->

<svg
   xmlns:dc="http://purl.org/dc/elements/1.1/"
   xmlns:cc="http://creativecommons.org/ns#"
   xmlns:rdf="http://www.w3.org/1999/02/22-rdf-syntax-ns#"
   xmlns:svg="http://www.w3.org/2000/svg"
   xmlns="http://www.w3.org/2000/svg"
   xmlns:sodipodi="http://sodipodi.sourceforge.net/DTD/sodipodi-0.dtd"
   xmlns:inkscape="http://www.inkscape.org/namespaces/inkscape"
   width="48"
   height="48"
   id="svg2"
   version="1.1"
   inkscape:version="0.48.4 r9939"
   sodipodi:docname="gas.svg">
  <defs
     id="defs4" />
  <sodipodi:namedview
     id="base"
     pagecolor="#ffffff"
     bordercolor="#666666"
     borderopacity="1.0"
     inkscape:pageopacity="0.0"
     inkscape:pageshadow="2"
     inkscape:zoom="10"
     inkscape:cx="-7.089586"
     inkscape:cy="30.508035"
     inkscape:document-units="px"
     inkscape:current-layer="layer1"
     showgrid="false"
     inkscape:window-width="2495"
     inkscape:window-height="1290"
     inkscape:window-x="65"
     inkscape:window-y="24"
     inkscape:window-maximized="1">
    <inkscape:grid
       type="xygrid"
       id="grid2987"
       empspacing="5"
       visible="true"
       enabled="true"
       snapvisiblegridlinesonly="true" />
  </sodipodi:namedview>
  <metadata
     id="metadata7">
    <rdf:RDF>
      <cc:Work
         rdf:about="">
        <dc:format>image/svg+xml</dc:format>
        <dc:type
           rdf:resource="http://purl.org/dc/dcmitype/StillImage" />
        <dc:title />
      </cc:Work>
    </rdf:RDF>
  </metadata>
  <g
     inkscape:label="Layer 1"
     inkscape:groupmode="layer"
     id="layer1"
     transform="translate(0,-1004.3622)">
    <path
       sodipodi:type="arc"
       style="fill:none;stroke:#323232;stroke-width:2.70000005;stroke-linecap:butt;stroke-linejoin:miter;stroke-miterlimit:4;stroke-opacity:1;stroke-dasharray:none"
       id="path2985"
       sodipodi:cx="15.7"
       sodipodi:cy="15.9"
       sodipodi:rx="14.95"
       sodipodi:ry="14.95"
       d="m 30.65,15.9 a 14.95,14.95 0 1 1 -29.9,0 14.95,14.95 0 1 1 29.9,0 z"
       transform="matrix(1.4027133,0,0,1.4027106,2.0774132,1005.959)" />
    <g
       id="g3789"
       transform="matrix(1.3106767,0,0,1.3106767,2.1929484,-330.82261)">
      <rect
         ry="1"
         y="1044.3622"
         x="8"
         height="3"
         width="16"
         id="rect3757"
         style="fill:#323232;fill-opacity:1;stroke:none" />
      <path
         id="rect3759"
         transform="translate(0,1020.3622)"
         d="m 11,5 c -0.554,0 -1,0.446 -1,1 l 0,18 c 0,0.554 0.446,1 1,1 l 10,0 c 0.554,0 1,-0.446 1,-1 L 22,6 C 22,5.446 21.554,5 21,5 L 11,5 z m 2,2 6,0 c 0.554,0 1,0.446 1,1 l 0,3 c 0,0.554 -0.446,1 -1,1 l -6,0 c -0.554,0 -1,-0.446 -1,-1 l 0,-3 c 0,-0.554 0.446,-1 1,-1 z"
         style="fill:#323232;fill-opacity:1;stroke:none"
         inkscape:connector-curvature="0" />
      <rect
         ry="1"
         transform="translate(0,1020.3622)"
         y="7"
         x="21"
         height="6"
         width="2"
         id="rect3764"
         style="fill:#323232;fill-opacity:1;stroke:none" />
      <rect
         transform="matrix(0.9825432,-0.18603457,0.18603457,0.9825432,0,0)"
         ry="1"
         y="1014.5028"
         x="-169.86412"
         height="5.2002125"
         width="2"
         id="rect3764-1"
         style="fill:#323232;fill-opacity:1;stroke:none" />
      <path
         sodipodi:nodetypes="cc"
         transform="translate(0,1020.3622)"
         inkscape:connector-curvature="0"
         id="path3786"
         d="m 22,11 c 1,18 7,7 2,1"
         style="fill:none;stroke:#323232;stroke-width:1.70000005;stroke-linecap:round;stroke-linejoin:round;stroke-miterlimit:4;stroke-opacity:1;stroke-dasharray:none" />
    </g>
  </g>
</svg>
