<svg xmlns:rdf="http://www.w3.org/1999/02/22-rdf-syntax-ns#" xmlns="http://www.w3.org/2000/svg" viewbox="0 0 48 48" version="1.1" xmlns:cc="http://creativecommons.org/ns#" xmlns:dc="http://purl.org/dc/elements/1.1/" viewBox="0 0 48 48">
<g transform="translate(0 -1004.4)">
<circle cx="15.7" transform="matrix(1.4027 0 0 1.4027 2.0774 1006)" stroke="#000" cy="15.9" r="14.95" stroke-width="2.7" fill="none"/>
<g transform="matrix(1.3107 0 0 1.3107 2.1929 -330.82)">
<path d="m16.625 8.7188c-0.72612 0-1.3125 0.58639-1.3125 1.3125v23.594h-1.3125c-0.72612 0-1.3125 0.58638-1.3125 1.3125v1.3125c0 0.72612 0.58638 1.3125 1.3125 1.3125h18.344c0.72612 0 1.3125-0.58638 1.3125-1.3125v-1.3125c0-0.72612-0.58638-1.3125-1.3125-1.3125h-1.3125v-7.9688c0.25505 1.0651 0.53197 1.9547 0.84375 2.6562 0.46618 1.0489 0.96953 1.7956 1.8438 2.1562 0.43711 0.18022 1.003 0.22568 1.4375 0.0625 0.43455-0.16292 0.74705-0.46512 1-0.78125 1.0118-1.2648 1.3041-3.2171 1.125-5.5-0.18-2.284-0.966-4.854-2.782-7.032a1.1142 1.1142 0 0 0 -0.21875 -0.25l-0.656-3.469c-0.1219-0.64384-0.67845-1.0817-1.3125-1.0625-0.10968-0.61447-0.63473-1.0938-1.2812-1.0938v-1.3125c0-0.72611-0.58638-1.3125-1.3125-1.3125h-13.094zm2.5938 2.625h7.875c0.72612 0 1.3125 0.58638 1.3125 1.3125v3.9375c0 0.72612-0.58638 1.3125-1.3125 1.3125h-7.875c-0.72612 0-1.3125-0.58638-1.3125-1.3125v-3.9375c0-0.72612 0.58638-1.3125 1.3125-1.3125zm13.093 7.531c0.24913 0.20379 0.56878 0.30308 0.90625 0.28125 1.1705 1.6433 1.7416 3.5494 1.875 5.25 0.1421 1.8116-0.32312 3.3494-0.625 3.8125-0.07319-0.07471-0.24758-0.1742-0.53125-0.8125-0.60446-1.36-1.2464-4.1108-1.625-8.5312z" transform="matrix(.76296 0 0 .76296 -1.6731 1018.7)"/>
</g>
</g>
</svg>
