<svg xmlns:rdf="http://www.w3.org/1999/02/22-rdf-syntax-ns#" xmlns="http://www.w3.org/2000/svg" version="1.1" xmlns:cc="http://creativecommons.org/ns#" xmlns:dc="http://purl.org/dc/elements/1.1/" viewBox="0 0 32 32">
<g transform="translate(0 -1020.4)">
<path style="block-progression:tb;text-indent:0;color:#000000;text-transform:none" d="m26.949 1021.3c0.98792 0 2.1082 0.3281 2.75 1.25 0.63755 0.9156 0.625 2.1004 0.625 3.0625v21.375c0 0.9621 0.01248 2.1157-0.625 3.0313-0.64186 0.9219-1.7622 1.2499-2.75 1.25h-14.906c-1.0889-0.0001-2.0024-0.6331-2.5625-1.4375-0.55571-0.7982-0.84375-1.7918-0.84375-2.8438v-3.0937a0.63406 0.63406 0 0 1 0.65625 -0.625h1.75a0.63406 0.63406 0 0 1 0.625 0.625v3.0937c0 0.6274 0.45137 1.125 1 1.125h13.656c0.01002 0 0.0213 0.0003 0.03125 0 0.53478-0.018 0.96875-0.5091 0.96875-1.125 0-0.021 0.000942-0.042 0-0.062v-21.312c0-0.011 0.000538-0.021 0-0.031 0-0.078-0.01802-0.1449-0.03125-0.2188-0.08876-0.496-0.45297-0.8755-0.90625-0.9062h-0.0625-13.625c-0.01067-0.0004-0.02049 0-0.03125 0-0.53903 0-0.98481 0.4815-1 1.0937-0.000271 0.011 0 0.02 0 0.031 0.00008 0.01 0 0.02 0 0.031v3.125a0.63406 0.63406 0 0 1 -0.625 0.625h-1.75a0.63406 0.63406 0 0 1 -0.65625 -0.625v-3.125c0-0.9621 0.0187-2.1469 0.65625-3.0625 0.64184-0.9219 1.7621-1.25 2.75-1.25h14.906z"/>
<g transform="matrix(.76371 0 0 .85901 .69651 145.24)">
<path style="block-progression:tb;text-indent:0;color:#000000;text-transform:none" d="m22.531 9.4062c-0.000536 0-0.59345 0.21855-0.59375 0.21875-0.000244 0.0002-0.34351 0.3746-0.34375 0.375-0.000243 0.0004-0.07392 0.1384-0.09375 0.1875-0.03966 0.098-0.05316 0.1476-0.0625 0.1875-0.01868 0.08-0.02728 0.12505-0.03125 0.15625-0.0079 0.062 0.0028 0.084 0 0.125-0.0054 0.082-0.02759 0.17175-0.03125 0.28125-0.0073 0.2189 0.0055 0.5155 0 0.875-0.006 0.3884-0.0274 0.96545-0.03125 1.4688h-7.0938c-0.95844 0-1.9062 0.77075-1.9062 1.8438v1.7812c0 1.0729 0.94782 1.8438 1.9062 1.8438h7.0938c0.0039 0.4833 0.02537 1.0314 0.03125 1.4062 0.0055 0.354-0.0073 0.6589 0 0.875 0.0036 0.108 0.02584 0.20005 0.03125 0.28125 0.0027 0.041-0.0079 0.063 0 0.125 0.0039 0.031 0.01268 0.07695 0.03125 0.15625 0.0093 0.04 0.0232 0.09 0.0625 0.1875 0.01965 0.049 0.09351 0.1871 0.09375 0.1875 0.00024 0.0003 0.34351 0.3748 0.34375 0.375 0.000304 0.0002 0.62446 0.21875 0.625 0.21875 0.000536 0 0.21428 0.01 0.28125 0 0.13394-0.02 0.20313-0.0465 0.25-0.0625 0.09374-0.033 0.12313-0.07675 0.15625-0.09375 0.06623-0.033 0.1131-0.0375 0.15625-0.0625 0.0863-0.051 0.16564-0.1135 0.28125-0.1875 0.23123-0.1482 0.53609-0.34625 0.90625-0.59375 0.74032-0.495 1.7165-1.177 2.6875-1.8438 0.971-0.6669 1.9259-1.3286 2.6562-1.8438 0.3652-0.2575 0.68314-0.4612 0.90625-0.625 0.11155-0.082 0.20244-0.15655 0.28125-0.21875 0.0394-0.031 0.07257-0.04675 0.125-0.09375 0.02621-0.024 0.067-0.06 0.125-0.125 0.029-0.033 0.06648-0.06505 0.125-0.15625 0.02926-0.046 0.09352-0.21815 0.09375-0.21875 0.000234-0.0006 0.09375-0.46835 0.09375-0.46875 0-0.0005-0.09352-0.46815-0.09375-0.46875 0-0.001-0.065-0.173-0.094-0.219-0.059-0.092-0.096-0.123-0.125-0.156-0.058-0.065-0.099-0.101-0.125-0.125-0.053-0.047-0.086-0.063-0.125-0.094-0.079-0.062-0.17-0.137-0.281-0.218-0.22319-0.163-0.54103-0.3689-0.90625-0.625-0.73044-0.5122-1.6852-1.1808-2.6562-1.8438-0.97102-0.663-1.9471-1.3205-2.6875-1.8125-0.37-0.247-0.675-0.4472-0.906-0.5945-0.116-0.074-0.226-0.1368-0.313-0.1875-0.043-0.025-0.058-0.0608-0.125-0.0938-0.03337-0.017-0.06163-0.0295-0.15625-0.0625-0.04731-0.017-0.11508-0.0435-0.25-0.0625-0.06746-0.01-0.31196-0.0001-0.3125 0z" transform="matrix(1.1248 0 0 1 -13.446 1021.4)"/>
</g>
</g>
</svg>
