<?xml version="1.0" encoding="UTF-8" standalone="no"?>
<!-- Created with Inkscape (http://www.inkscape.org/) -->

<svg
   xmlns:dc="http://purl.org/dc/elements/1.1/"
   xmlns:cc="http://creativecommons.org/ns#"
   xmlns:rdf="http://www.w3.org/1999/02/22-rdf-syntax-ns#"
   xmlns:svg="http://www.w3.org/2000/svg"
   xmlns="http://www.w3.org/2000/svg"
   xmlns:sodipodi="http://sodipodi.sourceforge.net/DTD/sodipodi-0.dtd"
   xmlns:inkscape="http://www.inkscape.org/namespaces/inkscape"
   width="32"
   height="32"
   id="svg2"
   version="1.1"
   inkscape:version="0.48.4 r9939"
   sodipodi:docname="login.svg">
  <defs
     id="defs4">
    <linearGradient
       id="linearGradient3979">
      <stop
         style="stop-color:#dff1f7;stop-opacity:0.44615385;"
         offset="0"
         id="stop3981" />
      <stop
         style="stop-color:#ffffff;stop-opacity:0.09230769;"
         offset="1"
         id="stop3983" />
    </linearGradient>
  </defs>
  <sodipodi:namedview
     id="base"
     pagecolor="#ffffff"
     bordercolor="#666666"
     borderopacity="1.0"
     inkscape:pageopacity="0.0"
     inkscape:pageshadow="2"
     inkscape:zoom="15"
     inkscape:cx="8.5285167"
     inkscape:cy="4.0962886"
     inkscape:document-units="px"
     inkscape:current-layer="layer1"
     showgrid="true"
     inkscape:window-width="1456"
     inkscape:window-height="1262"
     inkscape:window-x="65"
     inkscape:window-y="24"
     inkscape:window-maximized="0">
    <inkscape:grid
       type="xygrid"
       id="grid4226"
       empspacing="5"
       visible="true"
       enabled="true"
       snapvisiblegridlinesonly="true" />
  </sodipodi:namedview>
  <metadata
     id="metadata7">
    <rdf:RDF>
      <cc:Work
         rdf:about="">
        <dc:format>image/svg+xml</dc:format>
        <dc:type
           rdf:resource="http://purl.org/dc/dcmitype/StillImage" />
        <dc:title></dc:title>
      </cc:Work>
    </rdf:RDF>
  </metadata>
  <g
     inkscape:label="Layer 1"
     inkscape:groupmode="layer"
     id="layer1"
     transform="translate(0,-1020.3622)">
    <path
       style="font-size:medium;font-style:normal;font-variant:normal;font-weight:normal;font-stretch:normal;text-indent:0;text-align:start;text-decoration:none;line-height:normal;letter-spacing:normal;word-spacing:normal;text-transform:none;direction:ltr;block-progression:tb;writing-mode:lr-tb;text-anchor:start;baseline-shift:baseline;color:#000000;fill:#323232;fill-opacity:1;stroke:#323232;stroke-width:0.77499998000000003;stroke-linecap:round;stroke-linejoin:round;stroke-miterlimit:4;stroke-opacity:1;stroke-dasharray:none;marker:none;visibility:visible;display:inline;overflow:visible;enable-background:accumulate;font-family:Sans;-inkscape-font-specification:Sans"
       d="m 11.74098,1021.9616 c -0.83642,0 -1.758787,0.2998 -2.2286036,0.9746 -0.469817,0.6747 -0.5178137,1.7428 -0.5178137,2.6833 l 0,3.1208 1.7477203,0 0,-3.1208 c 0,-0.5634 0.161108,-1.0695 0.374511,-1.3759 0.213404,-0.3065 0.413568,-0.4027 0.624186,-0.4027 l 14.91804,0 c 0.210618,0 0.410782,0.097 0.624186,0.4027 0.213403,0.3064 0.374511,0.8125 0.374511,1.3759 l 0,21.3764 c 0,0.5634 -0.161108,1.0694 -0.374511,1.3759 -0.213404,0.3065 -0.413568,0.4026 -0.624186,0.4027 l -14.91804,0 c -0.210618,0 -0.410782,-0.097 -0.624186,-0.4027 -0.213403,-0.3065 -0.374511,-0.8125 -0.374511,-1.3759 l 0,-3.0873 -1.7477203,0 0,3.0873 c 0,0.9405 0.2479967,1.8085 0.7178137,2.4833 0.4698166,0.6748 1.1921836,1.1745 2.0286036,1.1746 l 14.91804,0 c 0.83642,-10e-5 1.758786,-0.2998 2.228604,-0.9746 0.469817,-0.6748 0.517813,-1.7428 0.517813,-2.6833 l 0,-21.3764 c 0,-0.9405 -0.048,-2.0086 -0.517813,-2.6833 -0.469818,-0.6748 -1.392184,-0.9746 -2.228604,-0.9746 z"
       id="rect4150"
       inkscape:connector-curvature="0"
       sodipodi:nodetypes="scsccscsscssscscsccssccssscss" />
    <g
       id="g4198"
       transform="matrix(0.88905778,0,0,1,1.9540864,-1.0156107)"
       style="stroke-width:0.10605594000000000;stroke-miterlimit:4;stroke-dasharray:none;stroke:#323232;stroke-opacity:1;fill:#323232;fill-opacity:1">
      <path
         style="fill:#323232;fill-opacity:1;stroke:#323232;stroke-width:0.97297089999999997;stroke-linecap:round;stroke-linejoin:round;stroke-miterlimit:4;stroke-opacity:1;stroke-dasharray:none"
         d="m 2.5721172,1035.9042 11.7446538,0 c 0.40424,0 0.729675,0.2701 0.729675,0.6055 l 0,1.7605 c 0,0.3354 -0.325435,0.6055 -0.729675,0.6055 l -11.7446538,0 c -0.4042399,0 -0.729675,-0.2701 -0.729675,-0.6055 l 0,-1.7605 c 0,-0.3354 0.3254351,-0.6055 0.729675,-0.6055 z"
         id="rect4152"
         inkscape:connector-curvature="0" />
      <path
         style="fill:#323232;fill-opacity:1;stroke:#323232;stroke-width:1.11861122000000002;stroke-linecap:round;stroke-linejoin:round;stroke-miterlimit:4;stroke-opacity:1;stroke-dasharray:none"
         inkscape:transform-center-x="-0.96781688"
         d="m 12.023041,1042.6866 c -0.08765,-0.054 -0.08765,-10.6065 0,-10.6598 0.08766,-0.054 8.765148,5.2233 8.765148,5.3299 0,0.1065 -8.677496,5.3831 -8.765148,5.3299 z"
         id="path4154"
         inkscape:connector-curvature="0"
         inkscape:transform-center-y="1.6970611e-05" />
    </g>
  </g>
</svg>
