<?xml version="1.0" encoding="UTF-8" standalone="no"?>
<!-- Created with Inkscape (http://www.inkscape.org/) -->

<svg
   xmlns:dc="http://purl.org/dc/elements/1.1/"
   xmlns:cc="http://creativecommons.org/ns#"
   xmlns:rdf="http://www.w3.org/1999/02/22-rdf-syntax-ns#"
   xmlns:svg="http://www.w3.org/2000/svg"
   xmlns="http://www.w3.org/2000/svg"
   xmlns:sodipodi="http://sodipodi.sourceforge.net/DTD/sodipodi-0.dtd"
   xmlns:inkscape="http://www.inkscape.org/namespaces/inkscape"
   width="32"
   height="32"
   id="svg2"
   version="1.1"
   inkscape:version="0.48.4 r9939"
   sodipodi:docname="login.svg">
  <defs
     id="defs4">
    <linearGradient
       id="linearGradient3979">
      <stop
         style="stop-color:#dff1f7;stop-opacity:0.44615385;"
         offset="0"
         id="stop3981" />
      <stop
         style="stop-color:#ffffff;stop-opacity:0.09230769;"
         offset="1"
         id="stop3983" />
    </linearGradient>
  </defs>
  <sodipodi:namedview
     id="base"
     pagecolor="#ffffff"
     bordercolor="#666666"
     borderopacity="1.0"
     inkscape:pageopacity="0.0"
     inkscape:pageshadow="2"
     inkscape:zoom="22.627417"
     inkscape:cx="22.522018"
     inkscape:cy="15.422273"
     inkscape:document-units="px"
     inkscape:current-layer="layer1"
     showgrid="true"
     inkscape:window-width="2495"
     inkscape:window-height="1290"
     inkscape:window-x="65"
     inkscape:window-y="24"
     inkscape:window-maximized="1">
    <inkscape:grid
       type="xygrid"
       id="grid4226"
       empspacing="5"
       visible="true"
       enabled="true"
       snapvisiblegridlinesonly="true" />
  </sodipodi:namedview>
  <metadata
     id="metadata7">
    <rdf:RDF>
      <cc:Work
         rdf:about="">
        <dc:format>image/svg+xml</dc:format>
        <dc:type
           rdf:resource="http://purl.org/dc/dcmitype/StillImage" />
        <dc:title></dc:title>
      </cc:Work>
    </rdf:RDF>
  </metadata>
  <g
     inkscape:label="Layer 1"
     inkscape:groupmode="layer"
     id="layer1"
     transform="translate(0,-1020.3622)">
    <path
       style="font-size:medium;font-style:normal;font-variant:normal;font-weight:normal;font-stretch:normal;text-indent:0;text-align:start;text-decoration:none;line-height:normal;letter-spacing:normal;word-spacing:normal;text-transform:none;direction:ltr;block-progression:tb;writing-mode:lr-tb;text-anchor:start;baseline-shift:baseline;color:#000000;fill:#000000;fill-opacity:1;fill-rule:nonzero;stroke:none;stroke-width:1.26800000999999996;marker:none;visibility:visible;display:inline;overflow:visible;enable-background:accumulate;font-family:Sans;-inkscape-font-specification:Sans"
       d="m 26.948846,1021.2997 c 0.987917,0 2.108162,0.3281 2.75,1.25 0.637546,0.9156 0.625,2.1004 0.625,3.0625 l 0,21.375 c 0,0.9621 0.01248,2.1157 -0.625,3.0313 -0.641855,0.9219 -1.762189,1.2499 -2.75,1.25 l -14.90625,0 c -1.088889,-10e-5 -2.002421,-0.6331 -2.5625005,-1.4375 -0.55571,-0.7982 -0.84375,-1.7918 -0.84375,-2.8438 l 0,-3.0937 a 0.6340634,0.6340634 0 0 1 0.65625,-0.625 l 1.7500005,0 a 0.6340634,0.6340634 0 0 1 0.625,0.625 l 0,3.0937 c 0,0.6274 0.451366,1.125 1,1.125 l 13.65625,0 c 0.01002,0 0.0213,3e-4 0.03125,0 0.53478,-0.018 0.96875,-0.5091 0.96875,-1.125 0,-0.021 9.42e-4,-0.042 0,-0.062 l 0,-21.3125 c 0,-0.011 5.38e-4,-0.021 0,-0.031 0,-0.078 -0.01802,-0.1449 -0.03125,-0.2188 -0.08876,-0.496 -0.452973,-0.8755 -0.90625,-0.9062 l -0.0625,0 -13.625,0 c -0.01067,-4e-4 -0.02049,0 -0.03125,0 -0.539033,0 -0.984809,0.4815 -1,1.0937 -2.71e-4,0.011 0,0.02 0,0.031 8e-5,0.01 0,0.02 0,0.031 l 0,3.125 a 0.6340634,0.6340634 0 0 1 -0.625,0.625 l -1.7500005,0 a 0.6340634,0.6340634 0 0 1 -0.65625,-0.625 l 0,-3.125 c 0,-0.9621 0.0187,-2.1469 0.65625,-3.0625 0.641836,-0.9219 1.7620835,-1.25 2.7500005,-1.25 l 14.90625,0 z"
       id="rect4150"
       inkscape:connector-curvature="0" />
    <g
       id="g4198"
       transform="matrix(0.76370958,0,0,0.85901006,0.69650706,145.24202)"
       style="fill:#000000;fill-opacity:1;stroke:none">
      <path
         style="font-size:medium;font-style:normal;font-variant:normal;font-weight:normal;font-stretch:normal;text-indent:0;text-align:start;text-decoration:none;line-height:normal;letter-spacing:normal;word-spacing:normal;text-transform:none;direction:ltr;block-progression:tb;writing-mode:lr-tb;text-anchor:start;baseline-shift:baseline;color:#000000;fill:#000000;fill-opacity:1;stroke:none;stroke-width:2.50000000000000000;marker:none;visibility:visible;display:inline;overflow:visible;enable-background:accumulate;font-family:Sans;-inkscape-font-specification:Sans"
         d="m 22.53125,9.40625 c -5.36e-4,0 -0.593446,0.21855 -0.59375,0.21875 -2.44e-4,2e-4 -0.343507,0.3746 -0.34375,0.375 -2.43e-4,4e-4 -0.07392,0.1384 -0.09375,0.1875 -0.03966,0.098 -0.05316,0.1476 -0.0625,0.1875 -0.01868,0.08 -0.02728,0.12505 -0.03125,0.15625 -0.0079,0.062 0.0028,0.084 0,0.125 -0.0054,0.082 -0.02759,0.17175 -0.03125,0.28125 -0.0073,0.2189 0.0055,0.5155 0,0.875 -0.006,0.3884 -0.0274,0.96545 -0.03125,1.46875 l -7.09375,0 c -0.958435,0 -1.90625,0.77075 -1.90625,1.84375 l 0,1.78125 c 0,1.0729 0.947815,1.84375 1.90625,1.84375 l 7.09375,0 c 0.0039,0.4833 0.02537,1.03135 0.03125,1.40625 0.0055,0.354 -0.0073,0.6589 0,0.875 0.0036,0.108 0.02584,0.20005 0.03125,0.28125 0.0027,0.041 -0.0079,0.063 0,0.125 0.0039,0.031 0.01268,0.07695 0.03125,0.15625 0.0093,0.04 0.0232,0.09 0.0625,0.1875 0.01965,0.049 0.09351,0.1871 0.09375,0.1875 2.4e-4,3e-4 0.343509,0.3748 0.34375,0.375 3.04e-4,2e-4 0.624464,0.21875 0.625,0.21875 5.36e-4,0 0.214278,0.01 0.28125,0 0.133944,-0.02 0.203128,-0.0465 0.25,-0.0625 0.09374,-0.033 0.123134,-0.07675 0.15625,-0.09375 0.06623,-0.033 0.113101,-0.0375 0.15625,-0.0625 0.0863,-0.051 0.165635,-0.1135 0.28125,-0.1875 0.23123,-0.1482 0.536092,-0.34625 0.90625,-0.59375 0.740316,-0.495 1.716501,-1.17695 2.6875,-1.84375 0.971,-0.6669 1.92586,-1.32865 2.65625,-1.84375 0.365195,-0.2575 0.683145,-0.4612 0.90625,-0.625 0.111554,-0.082 0.202445,-0.15655 0.28125,-0.21875 0.0394,-0.031 0.07257,-0.04675 0.125,-0.09375 0.02621,-0.024 0.067,-0.06 0.125,-0.125 0.029,-0.033 0.06648,-0.06505 0.125,-0.15625 0.02926,-0.046 0.09352,-0.21815 0.09375,-0.21875 2.34e-4,-6e-4 0.09375,-0.46835 0.09375,-0.46875 0,-5e-4 -0.09352,-0.46815 -0.09375,-0.46875 C 31.593516,15.4994 31.529409,15.32715 31.5,15.28125 31.44118,15.18925 31.404171,15.1576 31.375,15.125 31.31666,15.06 31.276335,15.0236 31.25,15 31.19733,14.953 31.16448,14.93725 31.125,14.90625 31.04604,14.84425 30.955345,14.769 30.84375,14.6875 c -0.223186,-0.163 -0.541031,-0.3689 -0.90625,-0.625 -0.730438,-0.5122 -1.685224,-1.18085 -2.65625,-1.84375 -0.971025,-0.663 -1.947112,-1.3205 -2.6875,-1.8125 C 24.223556,10.16015 23.918866,9.9598 23.6875,9.8125 23.571818,9.7385 23.461566,9.6757 23.375,9.625 23.331721,9.6 23.31675,9.56425 23.25,9.53125 c -0.03337,-0.017 -0.06163,-0.0295 -0.15625,-0.0625 -0.04731,-0.017 -0.115077,-0.0435 -0.25,-0.0625 -0.06746,-0.01 -0.311964,-10e-5 -0.3125,0 z"
         transform="matrix(1.1247863,0,0,1,-13.445792,1021.3778)"
         id="rect4152"
         inkscape:connector-curvature="0" />
    </g>
  </g>
</svg>
