<svg xmlns:rdf="http://www.w3.org/1999/02/22-rdf-syntax-ns#" xmlns="http://www.w3.org/2000/svg" viewbox="0 0 32 32" version="1.1" xmlns:cc="http://creativecommons.org/ns#" xmlns:dc="http://purl.org/dc/elements/1.1/" viewBox="0 0 32 32">
<g transform="translate(0 -1020.4)">
<path style="color:#000000;text-indent:0;block-progression:tb;text-decoration-line:none;text-transform:none" d="m20.906 2.5938c-0.00048 0-0.18713 0.03125-0.1875 0.03125-0.000368 0.0001-0.24974 0.1248-0.25 0.125-0.000085 0.0001-0.12487 0.09375-0.125 0.09375-0.000126 0.0001-0.02132 0.02125-0.03125 0.03125-0.01986 0.02-0.02341 0.02225-0.03125 0.03125-0.01567 0.017-0.025 0.02425-0.03125 0.03125-0.0125 0.015-0.02294 0.02125-0.03125 0.03125-0.01663 0.021-0.04056 0.06475-0.0625 0.09375-0.044 0.0579-0.083 0.1208-0.156 0.2186-0.146 0.1958-0.367 0.4757-0.594 0.7813-0.35173 0.475-0.75549 1.0004-1.125 1.5-0.6776-0.1387-1.3685-0.28125-2.0938-0.28125-0.68367 0-1.3077 0.1262-1.9375 0.25-0.362-0.4859-0.778-1.0039-1.125-1.4688-0.224-0.3-0.418-0.5575-0.563-0.75-0.072-0.096-0.112-0.1617-0.156-0.2187-0.022-0.029-0.046-0.0728-0.062-0.0938-0.008-0.01-0.019-0.0162-0.032-0.0312-0.006-0.01-0.015-0.0143-0.031-0.0313-0.008-0.01-0.011-0.0123-0.031-0.0313-0.01-0.01-0.031-0.0312-0.031-0.0312-0.000125-0.0001-0.12492-0.09375-0.125-0.09375-0.000255-0.0002-0.24963-0.1249-0.25-0.125-0.000368-0.0002-0.18702-0.03125-0.1875-0.03125-0.00096-0.0001-0.14323 0.02525-0.1875 0.03125-0.08855 0.012-0.12321 0.02125-0.15625 0.03125-0.06607 0.02-0.09331 0.01825-0.125 0.03125-0.064 0.027-0.125 0.0617-0.188 0.0937-0.127 0.063-0.282 0.1489-0.469 0.25-0.373 0.2021-0.8626 0.4763-1.3435 0.75s-0.9482 0.5324-1.3125 0.75c-0.1821 0.1088-0.3495 0.2047-0.4688 0.2813-0.059602 0.038-0.10059 0.084-0.15625 0.125-0.027832 0.02-0.073745 0.0165-0.125 0.0625-0.025628 0.023-0.038169 0.055-0.09375 0.125-0.027791 0.035-0.12457 0.1866-0.125 0.1875-0.0002 0.0004-0.0623 0.1558-0.0624 0.1562-0.0002 0.0004-0.0313 0.2808-0.0313 0.2812l0.0313 0.1563c0.0000315 0.0002-0.00356 0.0495 0 0.0625 0.00712 0.027 0.027641 0.02025 0.03125 0.03125 0.00722 0.022-0.00338 0.0535 0 0.0625 0.00676 0.018 0.026329 0.01925 0.03125 0.03125 0.00984 0.025 0.017606 0.06075 0.03125 0.09375 0.027289 0.066 0.047167 0.1394 0.09375 0.25 0.093166 0.221 0.22931 0.5318 0.375 0.875 0.2273 0.5353 0.48352 1.1292 0.71875 1.6875-0.87249 1.016-1.5563 2.1892-2 3.4688-0.61124 0.071-1.2651 0.15205-1.8438 0.21875-0.3775 0.043-0.72659 0.096-0.96875 0.125-0.12108 0.014-0.20926 0.02225-0.28125 0.03125h-0.09375c-0.013363 0-0.043117 0.02825-0.0625 0.03125h-0.03125c-0.011503 0-0.035399-0.01-0.0625 0-0.013551 0-0.031091 0.03125-0.03125 0.03125 0 0.001-0.1247 0.063-0.1248 0.063v-0.03125c-0.0002728 0.0001-0.24973 0.1872-0.25 0.1875-0.0002716 0.0002-0.12473 0.1246-0.125 0.125-0.0005407 0.0007-0.076922 0.1462-0.09375 0.1875-0.033655 0.083-0.023631 0.12265-0.03125 0.15625-0.015239 0.067-0.02717 0.091-0.03125 0.125-0.00816 0.068 0.00426 0.14785 0 0.21875-0.0086 0.141-0.0253 0.318-0.0313 0.531-0.011902 0.4256-0.027354 0.97605-0.03125 1.5312-0.0039 0.5551-0.00591 1.1056 0 1.5312 0.00296 0.2128 0.024738 0.38935 0.03125 0.53125 0.00326 0.071-0.00717 0.119 0 0.1875 0.00358 0.034 0.017016 0.08905 0.03125 0.15625 0.00712 0.034-0.00116 0.07295 0.03125 0.15625 0.016206 0.041 0.093222 0.15545 0.09375 0.15625 0.0002639 0.0004 0.12473 0.15595 0.125 0.15625 0.0002669 0.0002 0.21848 0.15615 0.21875 0.15625 0.0000908 0 0.12484 0.0625 0.125 0.0625 0.00016 0.0001 0.048924 0.02725 0.0625 0.03125 0.027152 0.01 0.050974 0 0.0625 0h0.03125c0.019438 0 0.049073 0.02925 0.0625 0.03125h0.09375c0.072434 0.01 0.15935 0.01625 0.28125 0.03125 0.24379 0.031 0.58838 0.078 0.96875 0.125 0.59277 0.073 1.2497 0.14205 1.875 0.21875 0.45114 1.2946 1.1443 2.4785 2.0312 3.5-0.2334 0.5406-0.49491 1.1374-0.71875 1.6562-0.14575 0.3377-0.28182 0.62565-0.375 0.84375-0.046592 0.109-0.066413 0.1847-0.09375 0.25-0.013669 0.033-0.021332 0.06875-0.03125 0.09375-0.00496 0.012-0.024384 0.01325-0.03125 0.03125-0.00343 0.01 0.00734 0.0405 0 0.0625-0.00367 0.011-0.024016 0.00025-0.03125 0.03125-0.00362 0.014 0.0000317 0.0625 0 0.0625-0.0000256 0.0001-0.027091 0.091-0.03125 0.125-0.0000016 0-0.00051 0.02625 0 0.03125 0.00464 0.046 0.031163 0.28085 0.03125 0.28125 0.0000969 0.0003 0.062291 0.15585 0.0625 0.15625 0.0004184 0.0009 0.098083 0.12115 0.125 0.15625 0.053834 0.07 0.068646 0.1014 0.09375 0.125 0.050208 0.047 0.066356 0.07275 0.09375 0.09375 0.054788 0.042 0.12886 0.086 0.1875 0.125 0.11728 0.079 0.25835 0.16945 0.4375 0.28125 0.3583 0.2235 0.8082 0.49975 1.2812 0.78125 0.47305 0.2815 0.97643 0.57305 1.3438 0.78125 0.18366 0.104 0.3125 0.1844 0.4375 0.25 0.0625 0.033 0.12459 0.06475 0.1875 0.09375 0.03146 0.014 0.05895 0.01025 0.125 0.03125 0.03303 0.011 0.06735 0.01825 0.15625 0.03125 0.04445 0.01 0.21779 0.03125 0.21875 0.03125 0.000478-0.0001 0.15588-0.03125 0.15625-0.03125 0.000368-0.0001 0.28099-0.1248 0.28125-0.125 0.000085-0.0001 0.12487-0.09375 0.125-0.09375 0.000126-0.0002 0.02123-0.02125 0.03125-0.03125 0.02004-0.02 0.02336-0.02325 0.03125-0.03125 0.01578-0.018 0.02498-0.02425 0.03125-0.03125 0.01254-0.015 0.02294-0.02125 0.03125-0.03125 0.017-0.02 0.041-0.064 0.063-0.093 0.044-0.057 0.083-0.122 0.156-0.219 0.146-0.194 0.368-0.479 0.594-0.781 0.35022-0.4688 0.75647-0.97725 1.125-1.4688 0.62972 0.1235 1.2545 0.25 1.9375 0.25 0.71866 0 1.3725-0.14425 2.0312-0.28125 0.39121 0.5183 0.81881 1.0747 1.1875 1.5625 0.23484 0.3107 0.44285 0.58295 0.59375 0.78125 0.07545 0.099 0.14227 0.16025 0.1875 0.21875 0.02261 0.029 0.04549 0.07175 0.0625 0.09375 0.0085 0.011 0.01864 0.01625 0.03125 0.03125 0.0063 0.01 0.01555 0.01425 0.03125 0.03125 0.0078 0.01 0.01144 0.01225 0.03125 0.03125 0.0099 0.01 0.06237 0.03125 0.0625 0.03125 0.00013 0.0001 0.09366 0.09375 0.09375 0.09375 0.000257 0.0002 0.28088 0.1249 0.28125 0.125 0.000368 0.0001 0.15577 0.03125 0.15625 0.03125 0.000956 0 0.1743-0.02425 0.21875-0.03125 0.0889-0.014 0.12322-0.02025 0.15625-0.03125 0.06605-0.022 0.09354-0.01725 0.125-0.03125 0.06291-0.028 0.125-0.06075 0.1875-0.09375 0.125-0.066 0.25384-0.146 0.4375-0.25 0.36732-0.2082 0.8707-0.49975 1.3438-0.78125 0.47305-0.2815 0.92295-0.55775 1.2812-0.78125 0.17915-0.1118 0.32022-0.20275 0.4375-0.28125 0.05864-0.039 0.13271-0.083 0.1875-0.125 0.02739-0.021 0.04354-0.04675 0.09375-0.09375 0.0251-0.024 0.03992-0.055 0.09375-0.125 0.02692-0.035 0.12458-0.15535 0.125-0.15625 0.000209-0.0004 0.0624-0.15595 0.0625-0.15625 0.000087-0.0004 0.02661-0.23525 0.03125-0.28125-0.000001 0 0.000947-0.02325 0-0.03125-0.004-0.033-0.03122-0.1249-0.03125-0.125-0.000033-0.0002 0.0035-0.01825 0-0.03125-0.007-0.027-0.02767-0.0515-0.03125-0.0625-0.0072-0.022 0.0034-0.02225 0-0.03125-0.0068-0.019-0.02624-0.0505-0.03125-0.0625-0.012-0.025-0.019-0.06-0.033-0.094-0.028-0.068-0.046-0.136-0.094-0.25-0.09575-0.2279-0.25525-0.55125-0.40625-0.90625-0.2355-0.5538-0.49854-1.195-0.75-1.7812 0.83938-0.9985 1.5051-2.155 1.9375-3.4062 0.62797-0.076 1.2819-0.1769 1.875-0.25 0.3804-0.047 0.72513-0.094 0.96875-0.125 0.12181-0.016 0.20891-0.02125 0.28125-0.03125h0.09375c0.01337 0 0.04328-0.02825 0.0625-0.03125h0.03125c0.01136 0 0.03576 0.01 0.0625 0 0.01337 0 0.06234-0.03125 0.0625-0.03125 0.00016-0.0001 0.12491-0.0625 0.125-0.0625 0.00027-0.0001 0.21848-0.15605 0.21875-0.15625 0.000266-0.0003 0.12474-0.15585 0.125-0.15625 0.000524-0.0008 0.07756-0.11445 0.09375-0.15625 0.03239-0.084 0.02424-0.1535 0.03125-0.1875 0.01401-0.068 0.02786-0.091 0.03125-0.125 0.0068-0.069-0.0028-0.117 0-0.1875 0.0055-0.1412 0.02979-0.31985 0.03125-0.53125 0.0029-0.4228-0.02341-0.98005-0.03125-1.5312-0.0078-0.5513-0.01634-1.1086-0.03125-1.5312-0.0075-0.2113-0.02173-0.39035-0.03125-0.53125-0.0048-0.07 0.0086-0.1193 0-0.1875-0.0043-0.034-0.01559-0.058-0.03125-0.125-0.0078-0.034 0.0026-0.07495-0.03125-0.15625-0.01692-0.041-0.09321-0.1867-0.09375-0.1875-0.000272-0.0004-0.12473-0.1247-0.125-0.125-0.000248-0.0002-0.18396-0.13125-0.21875-0.15625-0.000018-0.0001-0.02315 0-0.03125 0-0.03241-0.014-0.09362-0.0625-0.09375-0.0625-0.000158-0.0001-0.04878-0.02825-0.0625-0.03125-0.02744-0.01-0.05084 0-0.0625 0h-0.03125c-0.01957 0-0.04915-0.02925-0.0625-0.03125h-0.09375c-0.07145-0.01-0.16124-0.01725-0.28125-0.03125-0.24002-0.029-0.56334-0.082-0.9375-0.125-0.58309-0.068-1.2614-0.14695-1.875-0.21875-0.43428-1.2215-1.0561-2.3382-1.875-3.3125 0.25221-0.5947 0.51398-1.2532 0.75-1.8125 0.15084-0.3575 0.31068-0.67725 0.40625-0.90625 0.04779-0.1145 0.06587-0.1817 0.09375-0.25 0.01394-0.034 0.02128-0.06775 0.03125-0.09375 0.005-0.013 0.02451-0.0445 0.03125-0.0625 0.0034-0.01-0.0071-0.01025 0-0.03125 0.0036-0.011 0.02431-0.0355 0.03125-0.0625 0.0035-0.014-0.000032-0.03125 0-0.03125l0.033-0.1564c0.000014-0.0003-0.03115-0.28095-0.03125-0.28125-0.000101-0.0004-0.06228-0.15585-0.0625-0.15625-0.000431-0.0009-0.09721-0.1527-0.125-0.1875-0.055-0.07-0.068-0.1019-0.093-0.125-0.052-0.046-0.098-0.0425-0.126-0.0625-0.055-0.041-0.096-0.087-0.156-0.125-0.119-0.077-0.286-0.1725-0.468-0.2813-0.365-0.2176-0.832-0.4764-1.313-0.75s-0.971-0.5478-1.344-0.75c-0.186-0.101-0.342-0.1866-0.469-0.25-0.063-0.032-0.124-0.0667-0.187-0.0937-0.032-0.014-0.059-0.0113-0.125-0.0313-0.033-0.01-0.068-0.0192-0.156-0.0312-0.045-0.01-0.187-0.0312-0.188-0.0312zm-4.718 8.7812c2.5943 0 4.6875 2.0932 4.6875 4.6875s-2.0932 4.6875-4.6875 4.6875-4.6562-2.087-4.6562-4.6875 2.062-4.6875 4.6562-4.6875z" transform="translate(0 1020.4)"/>
</g>
</svg>
