<?xml version="1.0" encoding="UTF-8" standalone="no"?>
<!-- Created with Inkscape (http://www.inkscape.org/) -->

<svg
   xmlns:dc="http://purl.org/dc/elements/1.1/"
   xmlns:cc="http://creativecommons.org/ns#"
   xmlns:rdf="http://www.w3.org/1999/02/22-rdf-syntax-ns#"
   xmlns:svg="http://www.w3.org/2000/svg"
   xmlns="http://www.w3.org/2000/svg"
   xmlns:xlink="http://www.w3.org/1999/xlink"
   xmlns:sodipodi="http://sodipodi.sourceforge.net/DTD/sodipodi-0.dtd"
   xmlns:inkscape="http://www.inkscape.org/namespaces/inkscape"
   width="32"
   height="32"
   id="svg2"
   version="1.1"
   inkscape:version="0.48.4 r9939"
   sodipodi:docname="settings.svg">
  <defs
     id="defs4">
    <linearGradient
       id="linearGradient3979">
      <stop
         style="stop-color:#dff1f7;stop-opacity:0.44615385;"
         offset="0"
         id="stop3981" />
      <stop
         style="stop-color:#ffffff;stop-opacity:0.09230769;"
         offset="1"
         id="stop3983" />
    </linearGradient>
    <radialGradient
       inkscape:collect="always"
       xlink:href="#linearGradient3979"
       id="radialGradient3985"
       cx="302.33215"
       cy="533.90405"
       fx="302.33215"
       fy="533.90405"
       r="208.62822"
       gradientUnits="userSpaceOnUse" />
  </defs>
  <sodipodi:namedview
     id="base"
     pagecolor="#ffffff"
     bordercolor="#666666"
     borderopacity="1.0"
     inkscape:pageopacity="0.0"
     inkscape:pageshadow="2"
     inkscape:zoom="18"
     inkscape:cx="23.386387"
     inkscape:cy="4.0962886"
     inkscape:document-units="px"
     inkscape:current-layer="layer1"
     showgrid="true"
     inkscape:window-width="2495"
     inkscape:window-height="1290"
     inkscape:window-x="65"
     inkscape:window-y="24"
     inkscape:window-maximized="1">
    <inkscape:grid
       type="xygrid"
       id="grid5948" />
  </sodipodi:namedview>
  <metadata
     id="metadata7">
    <rdf:RDF>
      <cc:Work
         rdf:about="">
        <dc:format>image/svg+xml</dc:format>
        <dc:type
           rdf:resource="http://purl.org/dc/dcmitype/StillImage" />
        <dc:title></dc:title>
      </cc:Work>
    </rdf:RDF>
  </metadata>
  <g
     inkscape:label="Layer 1"
     inkscape:groupmode="layer"
     id="layer1"
     transform="translate(0,-1020.3622)">
    <path
       style="fill:#ffffff;fill-opacity:1;stroke:#ffffff;stroke-width:1.85730791000000006;stroke-linecap:round;stroke-linejoin:round;stroke-miterlimit:4;stroke-opacity:1;stroke-dasharray:none"
       d="M 20.96875 3.53125 C 20.946871 3.5454599 19.580858 5.3978546 18.71875 6.5625 C 17.915487 6.3497969 17.057657 6.21875 16.1875 6.21875 C 15.362291 6.21875 14.578196 6.3393053 13.8125 6.53125 C 12.970747 5.4015449 11.61523 3.576451 11.59375 3.5625 C 11.52853 3.5195 7.7464489 5.6722 7.75 5.75 C 7.751103 5.7754537 8.6440775 7.8580075 9.1875 9.15625 C 8.0509181 10.313621 7.2344697 11.769751 6.78125 13.375 C 5.3383279 13.542854 3.0544549 13.80067 3.03125 13.8125 C 2.961422 13.8475 2.9308906 18.2142 3 18.25 C 3.0232332 18.262102 5.3215936 18.538522 6.78125 18.71875 C 7.2408226 20.327445 8.0729169 21.781506 9.21875 22.9375 C 8.6741706 24.201349 7.7824391 26.255861 7.78125 26.28125 C 7.777069 26.35945 11.49677 28.57325 11.5625 28.53125 C 11.584203 28.517327 12.947873 26.680291 13.8125 25.53125 C 14.576865 25.722482 15.363872 25.84375 16.1875 25.84375 C 17.035027 25.84375 17.871838 25.702128 18.65625 25.5 C 19.568462 26.707398 20.977574 28.579364 21 28.59375 C 21.06573 28.63575 24.785431 26.42195 24.78125 26.34375 C 24.779996 26.316987 23.868898 24.178856 23.28125 22.8125 C 24.381393 21.663702 25.185311 20.232217 25.625 18.65625 C 27.088948 18.480402 29.383017 18.199502 29.40625 18.1875 C 29.47536 18.1515 29.4136 13.81675 29.34375 13.78125 C 29.320672 13.769353 27.057217 13.513613 25.625 13.34375 C 25.186034 11.807187 24.382257 10.409493 23.3125 9.28125 C 23.901766 7.8931453 24.811337 5.74543 24.8125 5.71875 C 24.816051 5.64095 21.03397 3.48825 20.96875 3.53125 z M 16.1875 10.4375 C 19.286431 10.4375 21.8125 12.963569 21.8125 16.0625 C 21.8125 19.161431 19.286431 21.6875 16.1875 21.6875 C 13.088569 21.6875 10.59375 19.161431 10.59375 16.0625 C 10.59375 12.963569 13.088569 10.4375 16.1875 10.4375 z "
       transform="translate(0,1020.3622)"
       id="path5928" />
  </g>
</svg>
