<?xml version="1.0" encoding="UTF-8" standalone="no"?>
<!-- Created with Inkscape (http://www.inkscape.org/) -->

<svg
   xmlns:dc="http://purl.org/dc/elements/1.1/"
   xmlns:cc="http://creativecommons.org/ns#"
   xmlns:rdf="http://www.w3.org/1999/02/22-rdf-syntax-ns#"
   xmlns:svg="http://www.w3.org/2000/svg"
   xmlns="http://www.w3.org/2000/svg"
   xmlns:xlink="http://www.w3.org/1999/xlink"
   xmlns:sodipodi="http://sodipodi.sourceforge.net/DTD/sodipodi-0.dtd"
   xmlns:inkscape="http://www.inkscape.org/namespaces/inkscape"
   width="32"
   height="32"
   id="svg2"
   version="1.1"
   inkscape:version="0.48.4 r9939"
   sodipodi:docname="settings-black.svg">
  <defs
     id="defs4">
    <linearGradient
       id="linearGradient3979">
      <stop
         style="stop-color:#dff1f7;stop-opacity:0.44615385;"
         offset="0"
         id="stop3981" />
      <stop
         style="stop-color:#ffffff;stop-opacity:0.09230769;"
         offset="1"
         id="stop3983" />
    </linearGradient>
    <radialGradient
       inkscape:collect="always"
       xlink:href="#linearGradient3979"
       id="radialGradient3985"
       cx="302.33215"
       cy="533.90405"
       fx="302.33215"
       fy="533.90405"
       r="208.62822"
       gradientUnits="userSpaceOnUse" />
  </defs>
  <sodipodi:namedview
     id="base"
     pagecolor="#ffffff"
     bordercolor="#666666"
     borderopacity="1.0"
     inkscape:pageopacity="0.0"
     inkscape:pageshadow="2"
     inkscape:zoom="30.344646"
     inkscape:cx="14.207067"
     inkscape:cy="15.816708"
     inkscape:document-units="px"
     inkscape:current-layer="layer1"
     showgrid="true"
     inkscape:window-width="2495"
     inkscape:window-height="1290"
     inkscape:window-x="65"
     inkscape:window-y="24"
     inkscape:window-maximized="1">
    <inkscape:grid
       type="xygrid"
       id="grid5948" />
  </sodipodi:namedview>
  <metadata
     id="metadata7">
    <rdf:RDF>
      <cc:Work
         rdf:about="">
        <dc:format>image/svg+xml</dc:format>
        <dc:type
           rdf:resource="http://purl.org/dc/dcmitype/StillImage" />
        <dc:title />
      </cc:Work>
    </rdf:RDF>
  </metadata>
  <g
     inkscape:label="Layer 1"
     inkscape:groupmode="layer"
     id="layer1"
     transform="translate(0,-1020.3622)">
    <path
       style="font-size:medium;font-style:normal;font-variant:normal;font-weight:normal;font-stretch:normal;text-indent:0;text-align:start;text-decoration:none;line-height:normal;letter-spacing:normal;word-spacing:normal;text-transform:none;direction:ltr;block-progression:tb;writing-mode:lr-tb;text-anchor:start;baseline-shift:baseline;color:#000000;fill:#000000;fill-opacity:1;fill-rule:nonzero;stroke:none;stroke-width:1.85730791000000006;marker:none;visibility:visible;display:inline;overflow:visible;enable-background:accumulate;font-family:Sans;-inkscape-font-specification:Sans"
       d="M 20.90625 2.59375 C 20.90577 2.59375 20.719118 2.625 20.71875 2.625 C 20.718382 2.6251 20.469005 2.7498 20.46875 2.75 C 20.468665 2.7501 20.343876 2.84375 20.34375 2.84375 C 20.343624 2.84385 20.32243 2.865 20.3125 2.875 C 20.29264 2.895 20.28909 2.89725 20.28125 2.90625 C 20.26558 2.92325 20.25625 2.9305 20.25 2.9375 C 20.2375 2.9525 20.22706 2.95875 20.21875 2.96875 C 20.20212 2.98975 20.17819 3.0335 20.15625 3.0625 C 20.11236 3.1205 20.073 3.18335 20 3.28125 C 19.854007 3.47695 19.632533 3.7569 19.40625 4.0625 C 19.054524 4.5375 18.650757 5.0629 18.28125 5.5625 C 17.603654 5.4238 16.912704 5.28125 16.1875 5.28125 C 15.503829 5.28125 14.879828 5.40745 14.25 5.53125 C 13.888306 5.04535 13.471652 4.5274 13.125 4.0625 C 12.90132 3.7625 12.707127 3.505 12.5625 3.3125 C 12.49019 3.2165 12.449746 3.15075 12.40625 3.09375 C 12.3845 3.06475 12.36022 3.021 12.34375 3 C 12.33555 2.99 12.32487 2.98375 12.3125 2.96875 C 12.3063 2.95875 12.29676 2.9545 12.28125 2.9375 C 12.27345 2.9275 12.26967 2.92525 12.25 2.90625 C 12.2402 2.89625 12.21888 2.875 12.21875 2.875 C 12.218625 2.8749 12.093834 2.78125 12.09375 2.78125 C 12.093495 2.78105 11.844118 2.65635 11.84375 2.65625 C 11.843382 2.65605 11.65673 2.625 11.65625 2.625 C 11.65529 2.6249 11.513024 2.65025 11.46875 2.65625 C 11.3802 2.66825 11.345537 2.6775 11.3125 2.6875 C 11.24643 2.7075 11.21919 2.70575 11.1875 2.71875 C 11.12412 2.74575 11.063356 2.7805 11 2.8125 C 10.873289 2.8755 10.717823 2.9614 10.53125 3.0625 C 10.158105 3.2646 9.6683764 3.5388 9.1875 3.8125 C 8.7066236 4.0862 8.239298 4.3449 7.875 4.5625 C 7.692851 4.6713 7.5254538 4.76725 7.40625 4.84375 C 7.346648 4.88175 7.3056631 4.92775 7.25 4.96875 C 7.222168 4.98875 7.176255 4.98525 7.125 5.03125 C 7.099372 5.05425 7.086831 5.08625 7.03125 5.15625 C 7.003459 5.19125 6.9066808 5.34285 6.90625 5.34375 C 6.9060346 5.34415 6.843851 5.4996 6.84375 5.5 C 6.8436488 5.5004 6.812486 5.78085 6.8125 5.78125 L 6.84375 5.9375 C 6.8437815 5.9377 6.84019 5.987 6.84375 6 C 6.85087 6.027 6.871391 6.02025 6.875 6.03125 C 6.88222 6.05325 6.87162 6.08475 6.875 6.09375 C 6.88176 6.11175 6.901329 6.113 6.90625 6.125 C 6.91609 6.15 6.923856 6.18575 6.9375 6.21875 C 6.964789 6.28475 6.984667 6.35815 7.03125 6.46875 C 7.124416 6.68975 7.2605597 7.00055 7.40625 7.34375 C 7.6335485 7.87905 7.889769 8.47295 8.125 9.03125 C 7.2525132 10.04725 6.5687379 11.2204 6.125 12.5 C 5.5137561 12.571 4.8598712 12.65205 4.28125 12.71875 C 3.9037518 12.76175 3.554659 12.81475 3.3125 12.84375 C 3.1914205 12.85775 3.103242 12.866 3.03125 12.875 L 2.9375 12.875 C 2.924137 12.875 2.894383 12.90325 2.875 12.90625 L 2.84375 12.90625 C 2.832247 12.90625 2.808351 12.89625 2.78125 12.90625 C 2.767699 12.90625 2.750159 12.9375 2.75 12.9375 C 2.7498406 12.9376 2.6250906 13 2.625 13 L 2.625 12.96875 C 2.6247272 12.96885 2.3752716 13.15595 2.375 13.15625 C 2.3747284 13.15645 2.2502704 13.28085 2.25 13.28125 C 2.2494593 13.28195 2.173078 13.42745 2.15625 13.46875 C 2.122595 13.55175 2.132619 13.5914 2.125 13.625 C 2.109761 13.692 2.09783 13.716 2.09375 13.75 C 2.08559 13.818 2.09801 13.89785 2.09375 13.96875 C 2.08523 14.11045 2.068451 14.2872 2.0625 14.5 C 2.050598 14.9256 2.035146 15.47605 2.03125 16.03125 C 2.02735 16.58635 2.02534 17.1369 2.03125 17.5625 C 2.03421 17.7753 2.055988 17.95185 2.0625 18.09375 C 2.06576 18.16475 2.05533 18.21275 2.0625 18.28125 C 2.06608 18.31525 2.079516 18.3703 2.09375 18.4375 C 2.10087 18.4715 2.09259 18.51045 2.125 18.59375 C 2.141206 18.63475 2.218222 18.7492 2.21875 18.75 C 2.2190139 18.7504 2.3434831 18.90595 2.34375 18.90625 C 2.3440169 18.90645 2.56223 19.0624 2.5625 19.0625 C 2.5625908 19.0625 2.68734 19.125 2.6875 19.125 C 2.68766 19.1251 2.736424 19.15225 2.75 19.15625 C 2.777152 19.16625 2.800974 19.15625 2.8125 19.15625 L 2.84375 19.15625 C 2.863188 19.15625 2.892823 19.1855 2.90625 19.1875 L 3 19.1875 C 3.072434 19.1975 3.1593527 19.20375 3.28125 19.21875 C 3.5250445 19.24975 3.8696293 19.29675 4.25 19.34375 C 4.8427707 19.41675 5.4996696 19.4858 6.125 19.5625 C 6.5761423 20.8571 7.2692613 22.041 8.15625 23.0625 C 7.9228504 23.6031 7.6613383 24.19995 7.4375 24.71875 C 7.2917502 25.05645 7.1556834 25.3444 7.0625 25.5625 C 7.015908 25.6715 6.996087 25.7472 6.96875 25.8125 C 6.955081 25.8455 6.947418 25.88125 6.9375 25.90625 C 6.93254 25.91825 6.913116 25.9195 6.90625 25.9375 C 6.90282 25.9475 6.91359 25.978 6.90625 26 C 6.90258 26.011 6.882234 26.00025 6.875 26.03125 C 6.87138 26.04525 6.8750317 26.09375 6.875 26.09375 C 6.8749744 26.09385 6.847909 26.18475 6.84375 26.21875 C 6.8437484 26.21875 6.84324 26.245 6.84375 26.25 C 6.84839 26.296 6.874913 26.53085 6.875 26.53125 C 6.8750969 26.53155 6.937291 26.6871 6.9375 26.6875 C 6.9379184 26.6884 7.035583 26.80865 7.0625 26.84375 C 7.116334 26.91375 7.131146 26.94515 7.15625 26.96875 C 7.206458 27.01575 7.222606 27.0415 7.25 27.0625 C 7.304788 27.1045 7.3788588 27.1485 7.4375 27.1875 C 7.5547825 27.2665 7.6958503 27.35695 7.875 27.46875 C 8.2332994 27.69225 8.6832031 27.9685 9.15625 28.25 C 9.6292969 28.5315 10.132681 28.82305 10.5 29.03125 C 10.683659 29.13525 10.8125 29.21565 10.9375 29.28125 C 11 29.31425 11.062086 29.346 11.125 29.375 C 11.15646 29.389 11.18395 29.38525 11.25 29.40625 C 11.28303 29.41725 11.31735 29.4245 11.40625 29.4375 C 11.4507 29.4475 11.624044 29.46875 11.625 29.46875 C 11.625478 29.46865 11.780882 29.4375 11.78125 29.4375 C 11.781618 29.4374 12.062243 29.3127 12.0625 29.3125 C 12.062585 29.3124 12.187374 29.21875 12.1875 29.21875 C 12.187626 29.21855 12.20873 29.1975 12.21875 29.1875 C 12.23879 29.1675 12.24211 29.16425 12.25 29.15625 C 12.26578 29.13825 12.27498 29.132 12.28125 29.125 C 12.29379 29.11 12.30419 29.10375 12.3125 29.09375 C 12.32912 29.07275 12.35311 29.029 12.375 29 C 12.41879 28.943 12.4584 28.87815 12.53125 28.78125 C 12.676946 28.58735 12.89902 28.3025 13.125 28 C 13.475216 27.5312 13.881472 27.02275 14.25 26.53125 C 14.879715 26.65475 15.50448 26.78125 16.1875 26.78125 C 16.906158 26.78125 17.559951 26.637 18.21875 26.5 C 18.609963 27.0183 19.037556 27.5747 19.40625 28.0625 C 19.641087 28.3732 19.8491 28.64545 20 28.84375 C 20.07545 28.94275 20.142272 29.004 20.1875 29.0625 C 20.21011 29.0915 20.23299 29.13425 20.25 29.15625 C 20.2585 29.16725 20.26864 29.1725 20.28125 29.1875 C 20.28755 29.1975 20.2968 29.20175 20.3125 29.21875 C 20.3203 29.22875 20.32394 29.231 20.34375 29.25 C 20.35365 29.26 20.40612 29.28125 20.40625 29.28125 C 20.40638 29.28135 20.49991 29.375 20.5 29.375 C 20.500257 29.3752 20.780882 29.4999 20.78125 29.5 C 20.781618 29.5001 20.937022 29.53125 20.9375 29.53125 C 20.938456 29.53125 21.111799 29.507 21.15625 29.5 C 21.24515 29.486 21.279475 29.47975 21.3125 29.46875 C 21.37855 29.44675 21.40604 29.4515 21.4375 29.4375 C 21.50041 29.4095 21.5625 29.37675 21.625 29.34375 C 21.75 29.27775 21.878841 29.19775 22.0625 29.09375 C 22.429819 28.88555 22.933203 28.594 23.40625 28.3125 C 23.879297 28.031 24.329201 27.75475 24.6875 27.53125 C 24.86665 27.41945 25.007718 27.3285 25.125 27.25 C 25.18364 27.211 25.257712 27.167 25.3125 27.125 C 25.33989 27.104 25.35604 27.07825 25.40625 27.03125 C 25.43135 27.00725 25.44617 26.97625 25.5 26.90625 C 25.52692 26.87125 25.624582 26.7509 25.625 26.75 C 25.625209 26.7496 25.6874 26.59405 25.6875 26.59375 C 25.687587 26.59335 25.71411 26.3585 25.71875 26.3125 C 25.718749 26.3125 25.719697 26.28925 25.71875 26.28125 C 25.71475 26.24825 25.68753 26.15635 25.6875 26.15625 C 25.687467 26.15605 25.691 26.138 25.6875 26.125 C 25.6805 26.098 25.65983 26.0735 25.65625 26.0625 C 25.64905 26.0405 25.65965 26.04025 25.65625 26.03125 C 25.64945 26.01225 25.63001 25.98075 25.625 25.96875 C 25.61498 25.94375 25.60773 25.909 25.59375 25.875 C 25.56579 25.807 25.54787 25.7389 25.5 25.625 C 25.40425 25.3971 25.244746 25.07375 25.09375 24.71875 C 24.858255 24.16495 24.595207 23.5238 24.34375 22.9375 C 25.183126 21.939 25.848818 20.78255 26.28125 19.53125 C 26.909219 19.45525 27.563155 19.35435 28.15625 19.28125 C 28.536651 19.23425 28.881382 19.18725 29.125 19.15625 C 29.246809 19.14025 29.333914 19.135 29.40625 19.125 L 29.5 19.125 C 29.51337 19.125 29.54328 19.09675 29.5625 19.09375 L 29.59375 19.09375 C 29.60511 19.09375 29.62951 19.10375 29.65625 19.09375 C 29.66962 19.09375 29.71859 19.0625 29.71875 19.0625 C 29.71891 19.0624 29.843659 19 29.84375 19 C 29.84402 18.9999 30.062234 18.84395 30.0625 18.84375 C 30.062766 18.84345 30.187238 18.6879 30.1875 18.6875 C 30.188024 18.6867 30.26506 18.57305 30.28125 18.53125 C 30.31364 18.44725 30.30549 18.37775 30.3125 18.34375 C 30.32651 18.27575 30.34036 18.25275 30.34375 18.21875 C 30.35055 18.14975 30.34095 18.10175 30.34375 18.03125 C 30.34925 17.89005 30.37354 17.7114 30.375 17.5 C 30.3779 17.0772 30.35159 16.51995 30.34375 15.96875 C 30.33595 15.41745 30.32741 14.8602 30.3125 14.4375 C 30.305 14.2262 30.29077 14.04715 30.28125 13.90625 C 30.27645 13.83625 30.28985 13.78695 30.28125 13.71875 C 30.27695 13.68475 30.26566 13.66075 30.25 13.59375 C 30.2422 13.55975 30.2526 13.5188 30.21875 13.4375 C 30.20183 13.3965 30.12554 13.2508 30.125 13.25 C 30.124728 13.2496 30.000273 13.1253 30 13.125 C 29.999752 13.1248 29.816042 12.99375 29.78125 12.96875 C 29.781232 12.96865 29.7581 12.96875 29.75 12.96875 C 29.71759 12.95475 29.65638 12.90625 29.65625 12.90625 C 29.656092 12.90615 29.60747 12.878 29.59375 12.875 C 29.56631 12.865 29.54291 12.875 29.53125 12.875 L 29.5 12.875 C 29.48043 12.875 29.45085 12.84575 29.4375 12.84375 L 29.34375 12.84375 C 29.2723 12.83375 29.182512 12.8265 29.0625 12.8125 C 28.822475 12.7835 28.499158 12.7305 28.125 12.6875 C 27.541911 12.6195 26.863574 12.54055 26.25 12.46875 C 25.815724 11.24725 25.193927 10.13055 24.375 9.15625 C 24.627214 8.56155 24.888977 7.90305 25.125 7.34375 C 25.275842 6.98625 25.435677 6.6665 25.53125 6.4375 C 25.57904 6.323 25.59712 6.2558 25.625 6.1875 C 25.63894 6.1535 25.64628 6.11975 25.65625 6.09375 C 25.66125 6.08075 25.68076 6.04925 25.6875 6.03125 C 25.6909 6.02125 25.6804 6.021 25.6875 6 C 25.6911 5.989 25.71181 5.9645 25.71875 5.9375 C 25.72225 5.9235 25.718718 5.90625 25.71875 5.90625 L 25.75 5.75 C 25.750014 5.7497 25.71885 5.46905 25.71875 5.46875 C 25.718649 5.46835 25.65647 5.3129 25.65625 5.3125 C 25.655819 5.3116 25.55904 5.1598 25.53125 5.125 C 25.47567 5.055 25.46313 5.0231 25.4375 5 C 25.38624 4.954 25.34033 4.9575 25.3125 4.9375 C 25.25684 4.8965 25.21585 4.8505 25.15625 4.8125 C 25.037046 4.7355 24.869649 4.63995 24.6875 4.53125 C 24.323202 4.31365 23.855876 4.05485 23.375 3.78125 C 22.894124 3.50755 22.404395 3.23335 22.03125 3.03125 C 21.844677 2.93015 21.689211 2.84465 21.5625 2.78125 C 21.49914 2.74925 21.438383 2.7145 21.375 2.6875 C 21.34331 2.6735 21.31607 2.67625 21.25 2.65625 C 21.21696 2.64625 21.1823 2.637 21.09375 2.625 C 21.04948 2.615 20.90721 2.59375 20.90625 2.59375 z M 16.1875 11.375 C 18.781774 11.375 20.875 13.4682 20.875 16.0625 C 20.875 18.6568 18.781774 20.75 16.1875 20.75 C 13.593226 20.75 11.53125 18.663 11.53125 16.0625 C 11.53125 13.462 13.593226 11.375 16.1875 11.375 z "
       id="path5928"
       transform="translate(0,1020.3622)" />
  </g>
</svg>
