<?xml version="1.0" encoding="UTF-8" standalone="no"?>
<!-- Created with Inkscape (http://www.inkscape.org/) -->

<svg
   xmlns:dc="http://purl.org/dc/elements/1.1/"
   xmlns:cc="http://creativecommons.org/ns#"
   xmlns:rdf="http://www.w3.org/1999/02/22-rdf-syntax-ns#"
   xmlns:svg="http://www.w3.org/2000/svg"
   xmlns="http://www.w3.org/2000/svg"
   xmlns:xlink="http://www.w3.org/1999/xlink"
   xmlns:sodipodi="http://sodipodi.sourceforge.net/DTD/sodipodi-0.dtd"
   xmlns:inkscape="http://www.inkscape.org/namespaces/inkscape"
   width="32"
   height="32"
   id="svg2"
   version="1.1"
   inkscape:version="0.91 r"
   sodipodi:docname="settings.svg"
   viewbox="0 0 32 32">
  <defs
     id="defs4">
    <linearGradient
       id="linearGradient3979">
      <stop
         style="stop-color:#dff1f7;stop-opacity:0.44615385;"
         offset="0"
         id="stop3981" />
      <stop
         style="stop-color:#ffffff;stop-opacity:0.09230769;"
         offset="1"
         id="stop3983" />
    </linearGradient>
    <radialGradient
       inkscape:collect="always"
       xlink:href="#linearGradient3979"
       id="radialGradient3985"
       cx="302.33215"
       cy="533.90405"
       fx="302.33215"
       fy="533.90405"
       r="208.62822"
       gradientUnits="userSpaceOnUse" />
  </defs>
  <sodipodi:namedview
     id="base"
     pagecolor="#ffffff"
     bordercolor="#666666"
     borderopacity="1.0"
     inkscape:pageopacity="0.0"
     inkscape:pageshadow="2"
     inkscape:zoom="30.344646"
     inkscape:cx="2.9200676"
     inkscape:cy="15.816708"
     inkscape:document-units="px"
     inkscape:current-layer="layer1"
     showgrid="true"
     inkscape:window-width="2495"
     inkscape:window-height="1290"
     inkscape:window-x="65"
     inkscape:window-y="24"
     inkscape:window-maximized="1">
    <inkscape:grid
       type="xygrid"
       id="grid5948" />
  </sodipodi:namedview>
  <metadata
     id="metadata7">
    <rdf:RDF>
      <cc:Work
         rdf:about="">
        <dc:format>image/svg+xml</dc:format>
        <dc:type
           rdf:resource="http://purl.org/dc/dcmitype/StillImage" />
        <dc:title />
      </cc:Work>
    </rdf:RDF>
  </metadata>
  <g
     inkscape:label="Layer 1"
     inkscape:groupmode="layer"
     id="layer1"
     transform="translate(0,-1020.3622)">
    <path
       style="color:#000000;font-style:normal;font-variant:normal;font-weight:normal;font-stretch:normal;font-size:medium;line-height:normal;font-family:Sans;-inkscape-font-specification:Sans;text-indent:0;text-align:start;text-decoration:none;text-decoration-line:none;letter-spacing:normal;word-spacing:normal;text-transform:none;direction:ltr;block-progression:tb;writing-mode:lr-tb;baseline-shift:baseline;text-anchor:start;display:inline;overflow:visible;visibility:visible;fill:#ffffff;fill-opacity:1;fill-rule:nonzero;stroke:none;stroke-width:1.85730791;marker:none;enable-background:accumulate"
       d="m 20.90625,2.59375 c -4.8e-4,0 -0.187132,0.03125 -0.1875,0.03125 -3.68e-4,1e-4 -0.249745,0.1248 -0.25,0.125 -8.5e-5,1e-4 -0.124874,0.09375 -0.125,0.09375 -1.26e-4,1e-4 -0.02132,0.02125 -0.03125,0.03125 -0.01986,0.02 -0.02341,0.02225 -0.03125,0.03125 -0.01567,0.017 -0.025,0.02425 -0.03125,0.03125 -0.0125,0.015 -0.02294,0.02125 -0.03125,0.03125 -0.01663,0.021 -0.04056,0.06475 -0.0625,0.09375 C 20.11236,3.1205 20.073,3.18335 20,3.28125 19.854007,3.47695 19.632533,3.7569 19.40625,4.0625 c -0.351726,0.475 -0.755493,1.0004 -1.125,1.5 -0.677596,-0.1387 -1.368546,-0.28125 -2.09375,-0.28125 -0.683671,0 -1.307672,0.1262 -1.9375,0.25 C 13.888306,5.04535 13.471652,4.5274 13.125,4.0625 12.90132,3.7625 12.707127,3.505 12.5625,3.3125 12.49019,3.2165 12.449746,3.15075 12.40625,3.09375 12.3845,3.06475 12.36022,3.021 12.34375,3 12.33555,2.99 12.32487,2.98375 12.3125,2.96875 12.3063,2.95875 12.29676,2.9545 12.28125,2.9375 12.27345,2.9275 12.26967,2.92525 12.25,2.90625 12.2402,2.89625 12.21888,2.875 12.21875,2.875 c -1.25e-4,-1e-4 -0.124916,-0.09375 -0.125,-0.09375 -2.55e-4,-2e-4 -0.249632,-0.1249 -0.25,-0.125 -3.68e-4,-2e-4 -0.18702,-0.03125 -0.1875,-0.03125 -9.6e-4,-1e-4 -0.143226,0.02525 -0.1875,0.03125 -0.08855,0.012 -0.123213,0.02125 -0.15625,0.03125 -0.06607,0.02 -0.09331,0.01825 -0.125,0.03125 C 11.12412,2.74575 11.063356,2.7805 11,2.8125 10.873289,2.8755 10.717823,2.9614 10.53125,3.0625 10.158105,3.2646 9.6683764,3.5388 9.1875,3.8125 8.7066236,4.0862 8.239298,4.3449 7.875,4.5625 7.692851,4.6713 7.5254538,4.76725 7.40625,4.84375 c -0.059602,0.038 -0.1005869,0.084 -0.15625,0.125 -0.027832,0.02 -0.073745,0.0165 -0.125,0.0625 -0.025628,0.023 -0.038169,0.055 -0.09375,0.125 -0.027791,0.035 -0.1245692,0.1866 -0.125,0.1875 C 6.9060346,5.34415 6.843851,5.4996 6.84375,5.5 6.8436488,5.5004 6.812486,5.78085 6.8125,5.78125 L 6.84375,5.9375 c 3.15e-5,2e-4 -0.00356,0.0495 0,0.0625 0.00712,0.027 0.027641,0.02025 0.03125,0.03125 0.00722,0.022 -0.00338,0.0535 0,0.0625 0.00676,0.018 0.026329,0.01925 0.03125,0.03125 0.00984,0.025 0.017606,0.06075 0.03125,0.09375 0.027289,0.066 0.047167,0.1394 0.09375,0.25 0.093166,0.221 0.2293097,0.5318 0.375,0.875 0.2272985,0.5353 0.483519,1.1292 0.71875,1.6875 -0.8724868,1.016 -1.5562621,2.18915 -2,3.46875 -0.6112439,0.071 -1.2651288,0.15205 -1.84375,0.21875 -0.3774982,0.043 -0.726591,0.096 -0.96875,0.125 -0.1210795,0.014 -0.209258,0.02225 -0.28125,0.03125 l -0.09375,0 c -0.013363,0 -0.043117,0.02825 -0.0625,0.03125 l -0.03125,0 c -0.011503,0 -0.035399,-0.01 -0.0625,0 -0.013551,0 -0.031091,0.03125 -0.03125,0.03125 C 2.7498406,12.9376 2.6250906,13 2.625,13 l 0,-0.03125 c -2.728e-4,10e-5 -0.2497284,0.1872 -0.25,0.1875 -2.716e-4,2e-4 -0.1247296,0.1246 -0.125,0.125 -5.407e-4,7e-4 -0.076922,0.1462 -0.09375,0.1875 -0.033655,0.083 -0.023631,0.12265 -0.03125,0.15625 -0.015239,0.067 -0.02717,0.091 -0.03125,0.125 -0.00816,0.068 0.00426,0.14785 0,0.21875 C 2.08523,14.11045 2.068451,14.2872 2.0625,14.5 c -0.011902,0.4256 -0.027354,0.97605 -0.03125,1.53125 -0.0039,0.5551 -0.00591,1.10565 0,1.53125 0.00296,0.2128 0.024738,0.38935 0.03125,0.53125 0.00326,0.071 -0.00717,0.119 0,0.1875 0.00358,0.034 0.017016,0.08905 0.03125,0.15625 0.00712,0.034 -0.00116,0.07295 0.03125,0.15625 0.016206,0.041 0.093222,0.15545 0.09375,0.15625 2.639e-4,4e-4 0.1247331,0.15595 0.125,0.15625 2.669e-4,2e-4 0.21848,0.15615 0.21875,0.15625 9.08e-5,0 0.12484,0.0625 0.125,0.0625 1.6e-4,10e-5 0.048924,0.02725 0.0625,0.03125 0.027152,0.01 0.050974,0 0.0625,0 l 0.03125,0 c 0.019438,0 0.049073,0.02925 0.0625,0.03125 l 0.09375,0 c 0.072434,0.01 0.1593527,0.01625 0.28125,0.03125 0.2437945,0.031 0.5883793,0.078 0.96875,0.125 0.5927707,0.073 1.2496696,0.14205 1.875,0.21875 0.4511423,1.2946 1.1442613,2.4785 2.03125,3.5 -0.2333996,0.5406 -0.4949117,1.13745 -0.71875,1.65625 -0.1457498,0.3377 -0.2818166,0.62565 -0.375,0.84375 -0.046592,0.109 -0.066413,0.1847 -0.09375,0.25 -0.013669,0.033 -0.021332,0.06875 -0.03125,0.09375 -0.00496,0.012 -0.024384,0.01325 -0.03125,0.03125 -0.00343,0.01 0.00734,0.0405 0,0.0625 -0.00367,0.011 -0.024016,2.5e-4 -0.03125,0.03125 -0.00362,0.014 3.17e-5,0.0625 0,0.0625 -2.56e-5,10e-5 -0.027091,0.091 -0.03125,0.125 -1.6e-6,0 -5.1e-4,0.02625 0,0.03125 0.00464,0.046 0.031163,0.28085 0.03125,0.28125 9.69e-5,3e-4 0.062291,0.15585 0.0625,0.15625 4.184e-4,9e-4 0.098083,0.12115 0.125,0.15625 0.053834,0.07 0.068646,0.1014 0.09375,0.125 0.050208,0.047 0.066356,0.07275 0.09375,0.09375 0.054788,0.042 0.1288588,0.086 0.1875,0.125 0.1172825,0.079 0.2583503,0.16945 0.4375,0.28125 0.3582994,0.2235 0.8082031,0.49975 1.28125,0.78125 0.4730469,0.2815 0.976431,0.57305 1.34375,0.78125 0.183659,0.104 0.3125,0.1844 0.4375,0.25 0.0625,0.033 0.124586,0.06475 0.1875,0.09375 0.03146,0.014 0.05895,0.01025 0.125,0.03125 0.03303,0.011 0.06735,0.01825 0.15625,0.03125 0.04445,0.01 0.217794,0.03125 0.21875,0.03125 4.78e-4,-10e-5 0.155882,-0.03125 0.15625,-0.03125 3.68e-4,-10e-5 0.280993,-0.1248 0.28125,-0.125 8.5e-5,-10e-5 0.124874,-0.09375 0.125,-0.09375 1.26e-4,-2e-4 0.02123,-0.02125 0.03125,-0.03125 0.02004,-0.02 0.02336,-0.02325 0.03125,-0.03125 0.01578,-0.018 0.02498,-0.02425 0.03125,-0.03125 0.01254,-0.015 0.02294,-0.02125 0.03125,-0.03125 C 12.32912,29.07275 12.35311,29.029 12.375,29 12.41879,28.943 12.4584,28.87815 12.53125,28.78125 12.676946,28.58735 12.89902,28.3025 13.125,28 c 0.350216,-0.4688 0.756472,-0.97725 1.125,-1.46875 0.629715,0.1235 1.25448,0.25 1.9375,0.25 0.718658,0 1.372451,-0.14425 2.03125,-0.28125 0.391213,0.5183 0.818806,1.0747 1.1875,1.5625 0.234837,0.3107 0.44285,0.58295 0.59375,0.78125 0.07545,0.099 0.142272,0.16025 0.1875,0.21875 0.02261,0.029 0.04549,0.07175 0.0625,0.09375 0.0085,0.011 0.01864,0.01625 0.03125,0.03125 0.0063,0.01 0.01555,0.01425 0.03125,0.03125 0.0078,0.01 0.01144,0.01225 0.03125,0.03125 0.0099,0.01 0.06237,0.03125 0.0625,0.03125 1.3e-4,10e-5 0.09366,0.09375 0.09375,0.09375 2.57e-4,2e-4 0.280882,0.1249 0.28125,0.125 3.68e-4,10e-5 0.155772,0.03125 0.15625,0.03125 9.56e-4,0 0.174299,-0.02425 0.21875,-0.03125 0.0889,-0.014 0.123225,-0.02025 0.15625,-0.03125 0.06605,-0.022 0.09354,-0.01725 0.125,-0.03125 0.06291,-0.028 0.125,-0.06075 0.1875,-0.09375 0.125,-0.066 0.253841,-0.146 0.4375,-0.25 0.367319,-0.2082 0.870703,-0.49975 1.34375,-0.78125 0.473047,-0.2815 0.922951,-0.55775 1.28125,-0.78125 0.17915,-0.1118 0.320218,-0.20275 0.4375,-0.28125 0.05864,-0.039 0.132712,-0.083 0.1875,-0.125 0.02739,-0.021 0.04354,-0.04675 0.09375,-0.09375 0.0251,-0.024 0.03992,-0.055 0.09375,-0.125 0.02692,-0.035 0.124582,-0.15535 0.125,-0.15625 2.09e-4,-4e-4 0.0624,-0.15595 0.0625,-0.15625 8.7e-5,-4e-4 0.02661,-0.23525 0.03125,-0.28125 -1e-6,0 9.47e-4,-0.02325 0,-0.03125 -0.004,-0.033 -0.03122,-0.1249 -0.03125,-0.125 -3.3e-5,-2e-4 0.0035,-0.01825 0,-0.03125 -0.007,-0.027 -0.02767,-0.0515 -0.03125,-0.0625 -0.0072,-0.022 0.0034,-0.02225 0,-0.03125 -0.0068,-0.019 -0.02624,-0.0505 -0.03125,-0.0625 C 25.61498,25.94375 25.60773,25.909 25.59375,25.875 25.56579,25.807 25.54787,25.7389 25.5,25.625 c -0.09575,-0.2279 -0.255254,-0.55125 -0.40625,-0.90625 -0.235495,-0.5538 -0.498543,-1.19495 -0.75,-1.78125 0.839376,-0.9985 1.505068,-2.15495 1.9375,-3.40625 0.627969,-0.076 1.281905,-0.1769 1.875,-0.25 0.380401,-0.047 0.725132,-0.094 0.96875,-0.125 0.121809,-0.016 0.208914,-0.02125 0.28125,-0.03125 l 0.09375,0 c 0.01337,0 0.04328,-0.02825 0.0625,-0.03125 l 0.03125,0 c 0.01136,0 0.03576,0.01 0.0625,0 0.01337,0 0.06234,-0.03125 0.0625,-0.03125 1.6e-4,-10e-5 0.124909,-0.0625 0.125,-0.0625 2.7e-4,-10e-5 0.218484,-0.15605 0.21875,-0.15625 2.66e-4,-3e-4 0.124738,-0.15585 0.125,-0.15625 5.24e-4,-8e-4 0.07756,-0.11445 0.09375,-0.15625 0.03239,-0.084 0.02424,-0.1535 0.03125,-0.1875 0.01401,-0.068 0.02786,-0.091 0.03125,-0.125 0.0068,-0.069 -0.0028,-0.117 0,-0.1875 0.0055,-0.1412 0.02979,-0.31985 0.03125,-0.53125 0.0029,-0.4228 -0.02341,-0.98005 -0.03125,-1.53125 -0.0078,-0.5513 -0.01634,-1.10855 -0.03125,-1.53125 -0.0075,-0.2113 -0.02173,-0.39035 -0.03125,-0.53125 -0.0048,-0.07 0.0086,-0.1193 0,-0.1875 -0.0043,-0.034 -0.01559,-0.058 -0.03125,-0.125 -0.0078,-0.034 0.0026,-0.07495 -0.03125,-0.15625 -0.01692,-0.041 -0.09321,-0.1867 -0.09375,-0.1875 -2.72e-4,-4e-4 -0.124727,-0.1247 -0.125,-0.125 -2.48e-4,-2e-4 -0.183958,-0.13125 -0.21875,-0.15625 -1.8e-5,-10e-5 -0.02315,0 -0.03125,0 -0.03241,-0.014 -0.09362,-0.0625 -0.09375,-0.0625 -1.58e-4,-10e-5 -0.04878,-0.02825 -0.0625,-0.03125 -0.02744,-0.01 -0.05084,0 -0.0625,0 l -0.03125,0 c -0.01957,0 -0.04915,-0.02925 -0.0625,-0.03125 l -0.09375,0 c -0.07145,-0.01 -0.161238,-0.01725 -0.28125,-0.03125 -0.240025,-0.029 -0.563342,-0.082 -0.9375,-0.125 -0.583089,-0.068 -1.261426,-0.14695 -1.875,-0.21875 -0.434276,-1.2215 -1.056073,-2.3382 -1.875,-3.3125 0.252214,-0.5947 0.513977,-1.2532 0.75,-1.8125 0.150842,-0.3575 0.310677,-0.67725 0.40625,-0.90625 0.04779,-0.1145 0.06587,-0.1817 0.09375,-0.25 0.01394,-0.034 0.02128,-0.06775 0.03125,-0.09375 0.005,-0.013 0.02451,-0.0445 0.03125,-0.0625 0.0034,-0.01 -0.0071,-0.01025 0,-0.03125 0.0036,-0.011 0.02431,-0.0355 0.03125,-0.0625 0.0035,-0.014 -3.2e-5,-0.03125 0,-0.03125 L 25.75,5.75 c 1.4e-5,-3e-4 -0.03115,-0.28095 -0.03125,-0.28125 -1.01e-4,-4e-4 -0.06228,-0.15585 -0.0625,-0.15625 -4.31e-4,-9e-4 -0.09721,-0.1527 -0.125,-0.1875 C 25.47567,5.055 25.46313,5.0231 25.4375,5 25.38624,4.954 25.34033,4.9575 25.3125,4.9375 25.25684,4.8965 25.21585,4.8505 25.15625,4.8125 25.037046,4.7355 24.869649,4.63995 24.6875,4.53125 24.323202,4.31365 23.855876,4.05485 23.375,3.78125 22.894124,3.50755 22.404395,3.23335 22.03125,3.03125 21.844677,2.93015 21.689211,2.84465 21.5625,2.78125 21.49914,2.74925 21.438383,2.7145 21.375,2.6875 21.34331,2.6735 21.31607,2.67625 21.25,2.65625 21.21696,2.64625 21.1823,2.637 21.09375,2.625 21.04948,2.615 20.90721,2.59375 20.90625,2.59375 Z M 16.1875,11.375 c 2.594274,0 4.6875,2.0932 4.6875,4.6875 0,2.5943 -2.093226,4.6875 -4.6875,4.6875 -2.594274,0 -4.65625,-2.087 -4.65625,-4.6875 0,-2.6005 2.061976,-4.6875 4.65625,-4.6875 z"
       id="path5928"
       transform="translate(0,1020.3622)"
       inkscape:connector-curvature="0" />
  </g>
</svg>
