<svg xmlns:rdf="http://www.w3.org/1999/02/22-rdf-syntax-ns#" xmlns="http://www.w3.org/2000/svg" viewbox="0 0 32 32" version="1.1" xmlns:cc="http://creativecommons.org/ns#" xmlns:dc="http://purl.org/dc/elements/1.1/" viewBox="0 0 32 32">
<g transform="translate(0 -1020.4)">
<g>
<path style="color:#000000;text-indent:0;block-progression:tb;text-decoration-line:none;text-transform:none" d="m4.9688 5.75c-2.2386 0-4.0938 1.8552-4.0938 4.0938v17.062c0 2.239 1.8552 4.094 4.0938 4.094h17.062c2.2386 0 4.0625-1.8552 4.0625-4.0938v-16.844l-2.4375 2.5312v14.312c0 0.9286-0.69644 1.625-1.625 1.625h-17.062c-0.92856 0-1.6562-0.6964-1.6562-1.625v-17.062c0-0.9286 0.72769-1.625 1.6562-1.625h13.656l2.375-2.468h-16.031z" transform="translate(0 1020.4)"/>
<g transform="translate(-.22222 -.66667)">
<rect transform="rotate(-45.994)" rx=".64636" ry=".96954" height="4.4444" width="3" y="729.62" x="-718.7"/>
<rect transform="rotate(-45.994)" rx=".70356" ry=".70356" height="4.4444" width="14.611" y="729.62" x="-734.03"/>
<path transform="matrix(.25999 -.20759 .20768 .26006 1.3108 1043.1)" d="m45.833 19c-0.717 0.565-4.991-1.39-5.839-1.728-0.848-0.339-5.293-1.865-5.424-2.769s3.699-3.628 4.417-4.193c0.717-0.5653 4.261-3.6515 5.109-3.3128 0.849 0.3388 1.292 5.0168 1.423 5.9208s1.032 5.517 0.314 6.082z"/>
</g>
</g>
</g>
</svg>
