<?xml version="1.0" encoding="UTF-8" standalone="no"?>
<!-- Created with Inkscape (http://www.inkscape.org/) -->

<svg
   xmlns:dc="http://purl.org/dc/elements/1.1/"
   xmlns:cc="http://creativecommons.org/ns#"
   xmlns:rdf="http://www.w3.org/1999/02/22-rdf-syntax-ns#"
   xmlns:svg="http://www.w3.org/2000/svg"
   xmlns="http://www.w3.org/2000/svg"
   xmlns:sodipodi="http://sodipodi.sourceforge.net/DTD/sodipodi-0.dtd"
   xmlns:inkscape="http://www.inkscape.org/namespaces/inkscape"
   width="48"
   height="48"
   id="svg2"
   version="1.1"
   inkscape:version="0.91 r"
   sodipodi:docname="dollar-2.svg"
   viewbox="0 0 48 48">
  <defs
     id="defs4" />
  <sodipodi:namedview
     id="base"
     pagecolor="#ffffff"
     bordercolor="#666666"
     borderopacity="1.0"
     inkscape:pageopacity="0.0"
     inkscape:pageshadow="2"
     inkscape:zoom="25.214109"
     inkscape:cx="16.624039"
     inkscape:cy="26.121908"
     inkscape:document-units="px"
     inkscape:current-layer="g7274"
     showgrid="true"
     inkscape:window-width="2495"
     inkscape:window-height="1290"
     inkscape:window-x="65"
     inkscape:window-y="24"
     inkscape:window-maximized="1">
    <inkscape:grid
       type="xygrid"
       id="grid2987"
       empspacing="5"
       visible="true"
       enabled="true"
       snapvisiblegridlinesonly="true" />
  </sodipodi:namedview>
  <metadata
     id="metadata7">
    <rdf:RDF>
      <cc:Work
         rdf:about="">
        <dc:format>image/svg+xml</dc:format>
        <dc:type
           rdf:resource="http://purl.org/dc/dcmitype/StillImage" />
        <dc:title></dc:title>
      </cc:Work>
    </rdf:RDF>
  </metadata>
  <g
     inkscape:label="Layer 1"
     inkscape:groupmode="layer"
     id="layer1"
     transform="translate(0,-1004.3622)">
    <g
       id="g7274">
      <path
         style="fill:#000000;fill-opacity:1;stroke:none;stroke-width:2.70000005;stroke-linecap:butt;stroke-linejoin:miter;stroke-miterlimit:4;stroke-dasharray:none;stroke-opacity:1"
         d="M 24 1 A 23 23 0 0 0 1 24 A 23 23 0 0 0 24 47 A 23 23 0 0 0 47 24 A 23 23 0 0 0 24 1 z M 23.085938 7.484375 L 25.214844 7.484375 L 25.214844 10.101562 C 26.608073 10.15399 27.792969 10.336234 28.769531 10.648438 C 29.746094 10.960903 30.572917 11.403622 31.25 11.976562 C 31.927083 12.536396 32.473958 13.233078 32.890625 14.066406 C 33.307292 14.886802 33.652344 15.843784 33.925781 16.9375 L 28.769531 17.699219 C 28.574219 16.566357 28.190104 15.69403 27.617188 15.082031 C 27.057292 14.457101 26.256511 14.072988 25.214844 13.929688 L 25.214844 20.804688 C 25.279949 20.830901 25.345053 20.84375 25.410156 20.84375 C 25.488281 20.84375 25.566406 20.856599 25.644531 20.882812 C 26.764323 21.143288 27.858073 21.449258 28.925781 21.800781 C 30.006511 22.152305 30.963542 22.627583 31.796875 23.226562 C 32.643229 23.825542 33.320312 24.600279 33.828125 25.550781 C 34.348958 26.488265 34.609375 27.679673 34.609375 29.125 C 34.609375 30.231823 34.427084 31.240899 34.0625 32.152344 C 33.697917 33.050769 33.13151 33.832018 32.363281 34.496094 C 31.608073 35.147151 30.638021 35.668012 29.453125 36.058594 C 28.26823 36.436243 26.855469 36.657559 25.214844 36.722656 L 25.214844 40.140625 L 23.085938 40.140625 L 23.085938 36.78125 C 21.601562 36.728823 20.305989 36.527043 19.199219 36.175781 C 18.105469 35.824258 17.167969 35.329444 16.386719 34.691406 C 15.618489 34.053369 14.99349 33.278632 14.511719 32.367188 C 14.042969 31.442724 13.691406 30.388064 13.457031 29.203125 L 18.457031 28.285156 C 18.561198 28.910087 18.710937 29.483043 18.90625 30.003906 C 19.114583 30.51175 19.394531 30.954469 19.746094 31.332031 C 20.097657 31.709681 20.540364 32.022163 21.074219 32.269531 C 21.621093 32.50388 22.291667 32.660165 23.085938 32.738281 L 23.085938 25.101562 C 23.046871 25.075349 22.949215 25.049651 22.792969 25.023438 C 22.636719 24.984117 22.532552 24.964844 22.480469 24.964844 C 21.464844 24.730407 20.46875 24.443973 19.492188 24.105469 C 18.515625 23.753945 17.64323 23.285179 16.875 22.699219 C 16.119792 22.100239 15.507812 21.35155 15.039062 20.453125 C 14.570312 19.54168 14.335938 18.408879 14.335938 17.054688 C 14.335938 15.869748 14.550781 14.85416 14.980469 14.007812 C 15.410156 13.148445 16.009114 12.43874 16.777344 11.878906 C 17.558594 11.318985 18.483073 10.895802 19.550781 10.609375 C 20.63151 10.322861 21.809896 10.15364 23.085938 10.101562 L 23.085938 7.484375 z M 23.085938 13.851562 C 22.395833 13.90399 21.816406 14.021116 21.347656 14.203125 C 20.891927 14.385396 20.520834 14.619823 20.234375 14.90625 C 19.947917 15.179745 19.746094 15.498738 19.628906 15.863281 C 19.511719 16.214805 19.453125 16.585893 19.453125 16.976562 C 19.453125 17.536484 19.544271 17.998738 19.726562 18.363281 C 19.908855 18.714892 20.162761 19.007839 20.488281 19.242188 C 20.813802 19.476536 21.197916 19.678404 21.640625 19.847656 C 22.083333 20.003976 22.565104 20.166685 23.085938 20.335938 L 23.085938 13.851562 z M 25.214844 25.570312 L 25.214844 32.738281 C 26.595053 32.647146 27.65625 32.32164 28.398438 31.761719 C 29.153646 31.201885 29.53125 30.349006 29.53125 29.203125 C 29.53125 28.565088 29.420573 28.050738 29.199219 27.660156 C 28.977865 27.256468 28.671875 26.930962 28.28125 26.683594 C 27.890625 26.436225 27.428386 26.234358 26.894531 26.078125 C 26.373698 25.908786 25.813802 25.739565 25.214844 25.570312 z "
         transform="translate(0,1004.3622)"
         id="path2985" />
      <g
         transform="matrix(1.3106767,0,0,1.3106767,2.1929484,-330.82261)"
         id="g3789">
        <g
           style="font-style:normal;font-weight:normal;font-size:30.51858711px;line-height:125%;font-family:Sans;letter-spacing:0px;word-spacing:0px;fill:#000000;fill-opacity:1;stroke:none;stroke-width:1px;stroke-linecap:butt;stroke-linejoin:miter;stroke-opacity:1"
           id="text3365">
          <g
             style="font-style:normal;font-weight:normal;font-size:30.51858711px;line-height:125%;font-family:Sans;letter-spacing:0px;word-spacing:0px;fill:#000000;fill-opacity:1;stroke:none;stroke-width:1px;stroke-linecap:butt;stroke-linejoin:miter;stroke-opacity:1"
             id="text3391" />
        </g>
      </g>
    </g>
  </g>
</svg>
