<?xml version="1.0" encoding="UTF-8" standalone="no"?>
<!-- Created with Inkscape (http://www.inkscape.org/) -->

<svg
   xmlns:dc="http://purl.org/dc/elements/1.1/"
   xmlns:cc="http://creativecommons.org/ns#"
   xmlns:rdf="http://www.w3.org/1999/02/22-rdf-syntax-ns#"
   xmlns:svg="http://www.w3.org/2000/svg"
   xmlns="http://www.w3.org/2000/svg"
   xmlns:sodipodi="http://sodipodi.sourceforge.net/DTD/sodipodi-0.dtd"
   xmlns:inkscape="http://www.inkscape.org/namespaces/inkscape"
   width="48"
   height="48"
   id="svg2"
   version="1.1"
   inkscape:version="0.91 r"
   sodipodi:docname="dollar.svg"
   viewbox="0 0 48 48">
  <defs
     id="defs4" />
  <sodipodi:namedview
     id="base"
     pagecolor="#ffffff"
     bordercolor="#666666"
     borderopacity="1.0"
     inkscape:pageopacity="0.0"
     inkscape:pageshadow="2"
     inkscape:zoom="25.214109"
     inkscape:cx="24.100012"
     inkscape:cy="26.121908"
     inkscape:document-units="px"
     inkscape:current-layer="text3365"
     showgrid="false"
     inkscape:window-width="2495"
     inkscape:window-height="1290"
     inkscape:window-x="65"
     inkscape:window-y="24"
     inkscape:window-maximized="1">
    <inkscape:grid
       type="xygrid"
       id="grid2987"
       empspacing="5"
       visible="true"
       enabled="true"
       snapvisiblegridlinesonly="true" />
  </sodipodi:namedview>
  <metadata
     id="metadata7">
    <rdf:RDF>
      <cc:Work
         rdf:about="">
        <dc:format>image/svg+xml</dc:format>
        <dc:type
           rdf:resource="http://purl.org/dc/dcmitype/StillImage" />
        <dc:title></dc:title>
      </cc:Work>
    </rdf:RDF>
  </metadata>
  <g
     inkscape:label="Layer 1"
     inkscape:groupmode="layer"
     id="layer1"
     transform="translate(0,-1004.3622)">
    <g
       id="g7274">
      <circle
         transform="matrix(1.4027133,0,0,1.4027106,2.0774132,1005.959)"
         id="path2985"
         style="fill:none;stroke:#000000;stroke-width:2.70000005;stroke-linecap:butt;stroke-linejoin:miter;stroke-miterlimit:4;stroke-dasharray:none;stroke-opacity:1"
         cx="15.7"
         cy="15.9"
         r="14.95" />
      <g
         transform="matrix(1.3106767,0,0,1.3106767,2.1929484,-330.82261)"
         id="g3789">
        <g
           style="font-style:normal;font-weight:normal;font-size:30.51858711px;line-height:125%;font-family:Sans;letter-spacing:0px;word-spacing:0px;fill:#000000;fill-opacity:1;stroke:none;stroke-width:1px;stroke-linecap:butt;stroke-linejoin:miter;stroke-opacity:1"
           id="text3365">
          <g
             style="font-style:normal;font-weight:normal;font-size:30.51858711px;line-height:125%;font-family:Sans;letter-spacing:0px;word-spacing:0px;fill:#000000;fill-opacity:1;stroke:none;stroke-width:1px;stroke-linecap:butt;stroke-linejoin:miter;stroke-opacity:1"
             id="text3391">
            <path
               d="m 24.732269,1040.9208 q 0,1.2667 -0.417247,2.3098 -0.417246,1.0282 -1.296443,1.7882 -0.864296,0.7451 -2.220347,1.1921 -1.35605,0.4322 -3.233659,0.5067 l 0,2.6078 -1.62428,0 0,-2.5631 q -1.698789,-0.06 -2.965429,-0.462 -1.251739,-0.4023 -2.145838,-1.1325 -0.8791979,-0.7302 -1.4305591,-1.7733 -0.5364595,-1.058 -0.8046893,-2.4141 l 3.8148234,-0.7003 q 0.119213,0.7152 0.342738,1.3113 0.238426,0.5812 0.640771,1.0133 0.402345,0.4322 1.013313,0.7153 0.625869,0.2682 1.53487,0.3576 l 0,-5.8265 q -0.04471,-0.03 -0.223525,-0.06 -0.17882,-0.045 -0.238426,-0.045 -1.162329,-0.2683 -2.279953,-0.6557 -1.117624,-0.4023 -1.996822,-1.0729 -0.864296,-0.6855 -1.4007554,-1.7137 -0.5364596,-1.0431 -0.5364596,-2.5929 0,-1.3561 0.4917546,-2.3247 0.4917544,-0.9835 1.3709524,-1.6242 0.894099,-0.6408 2.116035,-0.9686 1.236837,-0.3279 2.697199,-0.3875 l 0,-1.9968 1.62428,0 0,1.9968 q 1.594477,0.06 2.712101,0.4173 1.117624,0.3576 1.89251,1.0133 0.774886,0.6407 1.251739,1.5944 0.476853,0.9389 0.789788,2.1906 l -3.934037,0.5812 q -0.223525,-1.2965 -0.879197,-1.9969 -0.640771,-0.7152 -1.832904,-0.8792 l 0,5.2454 q 0.07451,0.03 0.149017,0.03 0.08941,0 0.17882,0.03 1.281542,0.2981 2.503477,0.7004 1.236838,0.4023 2.190544,1.0878 0.968607,0.6855 1.549772,1.7733 0.596066,1.0729 0.596066,2.727 z m -8.791976,-11.6531 q -0.789788,0.06 -1.326247,0.2683 -0.521558,0.2086 -0.849395,0.5364 -0.327836,0.313 -0.461951,0.7302 -0.134115,0.4023 -0.134115,0.8494 0,0.6408 0.208623,1.058 0.208624,0.4024 0.581165,0.6706 0.372541,0.2682 0.879198,0.4619 0.506656,0.1789 1.102722,0.3726 l 0,-4.9474 z m 4.917546,11.7127 q 0,-0.7302 -0.253328,-1.1772 -0.253328,-0.462 -0.700378,-0.7451 -0.44705,-0.2831 -1.058018,-0.4619 -0.596066,-0.1938 -1.281542,-0.3875 l 0,5.4689 q 1.579576,-0.1043 2.42897,-0.7451 0.864296,-0.6407 0.864296,-1.9521 z"
               style="font-style:normal;font-variant:normal;font-weight:bold;font-stretch:normal;font-family:'Liberation Sans';-inkscape-font-specification:'Liberation Sans Bold'"
               id="path3396" />
          </g>
        </g>
      </g>
    </g>
  </g>
</svg>
