<?xml version="1.0" encoding="UTF-8" standalone="no"?>
<!-- Created with Inkscape (http://www.inkscape.org/) -->

<svg
   xmlns:dc="http://purl.org/dc/elements/1.1/"
   xmlns:cc="http://creativecommons.org/ns#"
   xmlns:rdf="http://www.w3.org/1999/02/22-rdf-syntax-ns#"
   xmlns:svg="http://www.w3.org/2000/svg"
   xmlns="http://www.w3.org/2000/svg"
   xmlns:sodipodi="http://sodipodi.sourceforge.net/DTD/sodipodi-0.dtd"
   xmlns:inkscape="http://www.inkscape.org/namespaces/inkscape"
   width="48"
   height="48"
   id="svg2"
   version="1.1"
   inkscape:version="0.91 r"
   sodipodi:docname="euro.svg"
   viewbox="0 0 48 48">
  <defs
     id="defs4" />
  <sodipodi:namedview
     id="base"
     pagecolor="#ffffff"
     bordercolor="#666666"
     borderopacity="1.0"
     inkscape:pageopacity="0.0"
     inkscape:pageshadow="2"
     inkscape:zoom="25.214109"
     inkscape:cx="10.89312"
     inkscape:cy="24.893694"
     inkscape:document-units="px"
     inkscape:current-layer="g7274"
     showgrid="false"
     inkscape:window-width="2495"
     inkscape:window-height="1290"
     inkscape:window-x="65"
     inkscape:window-y="24"
     inkscape:window-maximized="1">
    <inkscape:grid
       type="xygrid"
       id="grid2987"
       empspacing="5"
       visible="true"
       enabled="true"
       snapvisiblegridlinesonly="true" />
  </sodipodi:namedview>
  <metadata
     id="metadata7">
    <rdf:RDF>
      <cc:Work
         rdf:about="">
        <dc:format>image/svg+xml</dc:format>
        <dc:type
           rdf:resource="http://purl.org/dc/dcmitype/StillImage" />
        <dc:title></dc:title>
      </cc:Work>
    </rdf:RDF>
  </metadata>
  <g
     inkscape:label="Layer 1"
     inkscape:groupmode="layer"
     id="layer1"
     transform="translate(0,-1004.3622)">
    <g
       id="g7274">
      <path
         style="color:#000000;font-style:normal;font-variant:normal;font-weight:normal;font-stretch:normal;font-size:medium;line-height:normal;font-family:sans-serif;text-indent:0;text-align:start;text-decoration:none;text-decoration-line:none;text-decoration-style:solid;text-decoration-color:#000000;letter-spacing:normal;word-spacing:normal;text-transform:none;direction:ltr;block-progression:tb;writing-mode:lr-tb;baseline-shift:baseline;text-anchor:start;white-space:normal;clip-rule:nonzero;display:inline;overflow:visible;visibility:visible;opacity:1;isolation:auto;mix-blend-mode:normal;color-interpolation:sRGB;color-interpolation-filters:linearRGB;solid-color:#000000;solid-opacity:1;fill:#000000;fill-opacity:1;fill-rule:nonzero;stroke:none;stroke-width:2.70000005;stroke-linecap:butt;stroke-linejoin:miter;stroke-miterlimit:4;stroke-dasharray:none;stroke-dashoffset:0;stroke-opacity:1;color-rendering:auto;image-rendering:auto;shape-rendering:auto;text-rendering:auto;enable-background:accumulate"
         d="m 24.098916,1005.3974 c -12.605134,0 -22.8625829,10.2601 -22.8625829,22.8652 1e-7,12.6052 10.2574489,22.8626 22.8625829,22.8626 12.605134,0 22.865323,-10.2574 22.865323,-22.8626 0,-12.6051 -10.260189,-22.8652 -22.865323,-22.8652 z m 0,3.7889 c 10.55831,0 19.079092,8.5181 19.079092,19.0763 0,10.5583 -8.520782,19.0764 -19.079092,19.0764 -10.558311,0 -19.0763528,-8.5181 -19.0763528,-19.0764 0,-10.5582 8.5180418,-19.0763 19.0763528,-19.0763 z"
         id="path2985"
         inkscape:connector-curvature="0" />
      <g
         transform="matrix(1.3106767,0,0,1.3106767,2.1929484,-330.82261)"
         id="g3789">
        <g
           style="font-style:normal;font-weight:normal;font-size:30.51858711px;line-height:125%;font-family:Sans;letter-spacing:0px;word-spacing:0px;fill:#000000;fill-opacity:1;stroke:none;stroke-width:1px;stroke-linecap:butt;stroke-linejoin:miter;stroke-opacity:1"
           id="text3409">
          <path
             d="m 7.4729812,1038.0816 -0.7324461,2.0753 2.1973383,0 c 0.3967416,1.9531 1.0071134,3.5401 1.9531896,4.944 1.373336,2.0447 3.906379,3.3875 6.317347,3.3875 1.190225,0 2.227857,-0.2441 4.638826,-1.0376 l 0,-4.5473 c -2.38045,1.2818 -3.23497,1.587 -4.455714,1.587 -1.831115,0 -3.296007,-1.5565 -4.089491,-4.3336 l 5.523865,0 0.762964,-2.0753 -6.622533,0 c -0.06104,-0.3052 -0.06104,-0.5188 -0.06104,-0.824 0,-0.4273 0.03052,-0.763 0.09155,-1.2513 l 7.324461,0 0.732446,-2.0752 -7.660165,0 c 0.732446,-2.8077 2.105783,-4.2726 3.997935,-4.2726 1.373336,0 2.533043,0.5188 4.455714,2.0447 l 1.373336,-3.9369 c -2.197338,-1.6175 -3.418082,-2.0753 -5.554383,-2.0753 -4.394676,0 -7.599128,3.0214 -8.7283156,8.2401 l -1.4648922,0 -0.7324461,2.0752 1.922671,0 c -0.030519,0.3662 -0.030519,0.6409 -0.030519,1.0071 0,0.3663 0,0.6409 0.061037,1.0682 l -1.2207435,0 z"
             style="font-style:normal;font-variant:normal;font-weight:bold;font-stretch:normal;font-family:'Nimbus Sans L';-inkscape-font-specification:'Nimbus Sans L Bold'"
             id="path3414" />
        </g>
      </g>
    </g>
  </g>
</svg>
