<?xml version="1.0" encoding="UTF-8" standalone="no"?>
<!-- Created with Inkscape (http://www.inkscape.org/) -->

<svg
   xmlns:dc="http://purl.org/dc/elements/1.1/"
   xmlns:cc="http://creativecommons.org/ns#"
   xmlns:rdf="http://www.w3.org/1999/02/22-rdf-syntax-ns#"
   xmlns:svg="http://www.w3.org/2000/svg"
   xmlns="http://www.w3.org/2000/svg"
   xmlns:sodipodi="http://sodipodi.sourceforge.net/DTD/sodipodi-0.dtd"
   xmlns:inkscape="http://www.inkscape.org/namespaces/inkscape"
   width="48"
   height="48"
   id="svg2"
   version="1.1"
   inkscape:version="0.91 r"
   sodipodi:docname="euro-2.svg"
   viewbox="0 0 48 48">
  <defs
     id="defs4" />
  <sodipodi:namedview
     id="base"
     pagecolor="#ffffff"
     bordercolor="#666666"
     borderopacity="1.0"
     inkscape:pageopacity="0.0"
     inkscape:pageshadow="2"
     inkscape:zoom="25.214109"
     inkscape:cx="10.020593"
     inkscape:cy="24.893694"
     inkscape:document-units="px"
     inkscape:current-layer="g7274"
     showgrid="false"
     inkscape:window-width="2495"
     inkscape:window-height="1290"
     inkscape:window-x="65"
     inkscape:window-y="24"
     inkscape:window-maximized="1">
    <inkscape:grid
       type="xygrid"
       id="grid2987"
       empspacing="5"
       visible="true"
       enabled="true"
       snapvisiblegridlinesonly="true" />
  </sodipodi:namedview>
  <metadata
     id="metadata7">
    <rdf:RDF>
      <cc:Work
         rdf:about="">
        <dc:format>image/svg+xml</dc:format>
        <dc:type
           rdf:resource="http://purl.org/dc/dcmitype/StillImage" />
        <dc:title></dc:title>
      </cc:Work>
    </rdf:RDF>
  </metadata>
  <g
     inkscape:label="Layer 1"
     inkscape:groupmode="layer"
     id="layer1"
     transform="translate(0,-1004.3622)">
    <g
       id="g7274">
      <path
         style="fill:#000000;fill-opacity:1;stroke:none;stroke-width:2.70000005;stroke-linecap:butt;stroke-linejoin:miter;stroke-miterlimit:4;stroke-dasharray:none;stroke-opacity:1"
         d="M 24 1 A 23 23 0 0 0 1 24 A 23 23 0 0 0 24 47 A 23 23 0 0 0 47 24 A 23 23 0 0 0 24 1 z M 25.347656 9.1640625 C 28.147656 9.1640625 29.746953 9.7647461 32.626953 11.884766 L 30.828125 17.044922 C 28.308125 15.04496 26.788281 14.365234 24.988281 14.365234 C 22.508282 14.365234 20.708047 16.284857 19.748047 19.964844 L 29.787109 19.964844 L 28.828125 22.683594 L 19.228516 22.683594 C 19.148525 23.323597 19.107422 23.764167 19.107422 24.324219 C 19.107422 24.724237 19.107496 25.004278 19.1875 25.404297 L 27.867188 25.404297 L 26.867188 28.125 L 19.626953 28.125 C 20.666954 31.76488 22.588281 33.804688 24.988281 33.804688 C 26.588282 33.804688 27.708125 33.404635 30.828125 31.724609 L 30.828125 37.683594 C 27.668124 38.723616 26.308047 39.044922 24.748047 39.044922 C 21.588047 39.044922 18.266796 37.285409 16.466797 34.605469 C 15.226797 32.76541 14.428203 30.684883 13.908203 28.125 L 11.027344 28.125 L 11.988281 25.404297 L 13.587891 25.404297 C 13.507891 24.844245 13.507812 24.484007 13.507812 24.003906 C 13.507812 23.523936 13.506874 23.163564 13.546875 22.683594 L 11.027344 22.683594 L 11.988281 19.964844 L 13.908203 19.964844 C 15.388203 13.124815 19.587657 9.1640625 25.347656 9.1640625 z "
         transform="translate(0,1004.3622)"
         id="path2985" />
      <g
         transform="matrix(1.3106767,0,0,1.3106767,2.1929484,-330.82261)"
         id="g3789">
        <g
           style="font-style:normal;font-weight:normal;font-size:30.51858711px;line-height:125%;font-family:Sans;letter-spacing:0px;word-spacing:0px;fill:#000000;fill-opacity:1;stroke:none;stroke-width:1px;stroke-linecap:butt;stroke-linejoin:miter;stroke-opacity:1"
           id="text3409" />
      </g>
    </g>
  </g>
</svg>
